#
#
#

mtllib Bathtub.mtl


#
# Cube.015
#
g Cube.015


#
# Cube.015_White
#
usemtl Cube.015_White

v 73.265770 13.669837 139.415222
v 53.692436 13.669840 158.988556
v 53.692436 13.669783 -191.569199
v 73.265770 13.669786 -171.995865
v -73.265770 13.669786 -171.995865
v -53.692436 13.669783 -191.569199
v -53.692436 13.669840 158.988556
v -73.265770 13.669837 139.415222
v -58.902763 13.669843 177.578476
v -80.375496 13.669840 156.105743
v -80.375496 106.473633 156.105728
v -58.902763 106.473640 177.578461
v -80.375496 13.669784 -188.686386
v -58.902763 13.669780 -210.159119
v -58.902763 106.473579 -210.159134
v -80.375496 106.473579 -188.686401
v 80.375496 13.669840 156.105743
v 58.902763 13.669843 177.578476
v 58.902763 106.473640 177.578461
v 80.375496 106.473633 156.105728
v 58.902763 13.669780 -210.159119
v 80.375496 13.669784 -188.686386
v 80.375496 106.473579 -188.686401
v 58.902763 106.473579 -210.159134
v 73.265770 -0.750561 -171.995865
v 73.265770 -0.750510 139.415222
v -53.692436 -0.750564 -191.569199
v 53.692436 -0.750564 -191.569199
v -73.265770 -0.750510 139.415222
v -73.265770 -0.750561 -171.995865
v -53.692436 -0.750507 158.988556
v 53.692436 -0.750507 158.988556
v -52.345074 106.473640 166.325714
v -71.427223 106.473633 146.002731
v -71.427223 106.473579 -178.583405
v -52.345074 106.473579 -198.906387
v 52.345074 106.473579 -198.906387
v 71.427223 106.473579 -178.583405
v 71.427223 106.473633 146.002731
v 52.345074 106.473640 166.325714
v -52.345074 32.013657 166.325729
v -71.427223 32.013653 146.002747
v -71.427223 32.013599 -178.583389
v -52.345074 32.013599 -198.906372
v 52.345074 32.013599 -198.906372
v 71.427223 32.013599 -178.583389
v 71.427223 32.013653 146.002747
v 52.345074 32.013657 166.325729
v -46.864357 19.709448 145.499542
v -63.948544 19.709446 127.304436
v -63.948544 19.709398 -159.885071
v -46.864357 19.709396 -178.080170
v 46.864357 19.709396 -178.080170
v 63.948544 19.709398 -159.885071
v 63.948544 19.709446 127.304436
v 46.864357 19.709448 145.499542
v -13.073629 107.663551 -197.628448
v 13.073629 107.663551 -197.628448
v -13.073629 89.066536 -197.628448
v 13.073629 89.066536 -197.628448
v 13.073629 107.663544 -212.395157
v -13.073629 107.663544 -212.395157
v 13.073629 89.066528 -212.395157
v -13.073629 89.066528 -212.395157
v 0.000000 103.694733 -210.588593
v 0.000000 121.206924 -210.588593
v 3.860386 103.694733 -208.989563
v 3.860386 121.206924 -208.989563
v 5.459411 103.694733 -205.129181
v 5.459411 121.206924 -205.129181
v 3.860386 103.694733 -201.268814
v 3.860386 121.206924 -201.268814
v -0.000000 103.694733 -199.669785
v -0.000000 121.206924 -199.669785
v -3.860386 103.694733 -201.268814
v -3.860386 121.206924 -201.268814
v -5.459411 103.694733 -205.129181
v -5.459411 121.206924 -205.129181
v -3.860386 103.694733 -208.989563
v -3.860386 121.206924 -208.989563
v -0.000000 118.068474 -201.344406
v -0.000000 118.050285 -186.932465
v 2.007880 116.909233 -201.344406
v 2.007880 116.900154 -187.077393
v 2.007880 114.590736 -201.344406
v 2.007880 114.599838 -187.367264
v -0.000000 113.431496 -201.344406
v -0.000000 113.449684 -187.512192
v -2.007880 114.590736 -201.344406
v -2.007880 114.599838 -187.367264
v -2.007880 116.909233 -201.344406
v -2.007880 116.900154 -187.077393
v 2.007880 115.603752 -182.711395
v -0.000000 116.469452 -181.940399
v 2.007880 113.872375 -184.253387
v -0.000000 113.006706 -185.024368
v -2.007880 113.872375 -184.253387
v -2.007880 115.603752 -182.711395
v 2.491987 109.808365 -180.009125
v -0.000000 109.808365 -178.572861
v 2.491987 109.808365 -182.881622
v -0.000000 109.808365 -184.317886
v -2.491987 109.808365 -182.881622
v -2.491987 109.808365 -180.009125
v 3.860386 122.215218 -208.984985
v -0.000000 122.011368 -210.554932
v 5.459411 122.707336 -205.194794
v 3.860386 122.850937 -201.404617
v -0.000001 123.054787 -199.834671
v -3.860386 122.850937 -201.404617
v -5.459411 122.707336 -205.194794
v -3.860386 122.215218 -208.984985
v -0.000028 123.425980 -177.714035
v 3.860358 123.425980 -177.714035
v -3.860414 123.425980 -177.714035
v -0.000028 125.270195 -177.714035
v 3.860358 125.066345 -177.714035
v -3.860414 125.066345 -177.714035
v 0.000000 75.605919 -201.751694
v 0.000000 75.605919 -196.061066
v 4.498849 73.742439 -201.751694
v 4.498849 73.742439 -196.061066
v 6.362334 69.243584 -201.751694
v 6.362334 69.243584 -196.061066
v 4.498849 64.744736 -201.751694
v 4.498849 64.744736 -196.061066
v -0.000001 62.881252 -201.751694
v -0.000001 62.881256 -196.061066
v -4.498850 64.744736 -201.751694
v -4.498850 64.744736 -196.061066
v -6.362334 69.243584 -201.751694
v -6.362334 69.243584 -196.061066
v -4.498850 73.742439 -201.751694
v -4.498850 73.742439 -196.061066
vn 0.382683 0.000000 0.923880
vn -0.382683 0.000000 0.923880
vn 0.923880 -0.000000 -0.382683
vn 0.923880 0.000000 0.382683
vn 0.000000 1.000000 -0.000000
vn 0.000001 1.000000 -0.000000
vn 0.000001 1.000000 -0.000000
vn 0.000000 1.000000 -0.000000
vn -0.923880 0.000000 0.382683
vn -0.923880 -0.000000 -0.382683
vn -0.382683 -0.000000 -0.923880
vn 0.382683 -0.000000 -0.923880
vn 0.000000 -1.000000 0.000000
vn 0.000000 -1.000000 0.000000
vn 0.000000 -1.000000 0.000000
vn 0.000000 -1.000000 0.000000
vn -0.000000 -1.000000 0.000000
vn -0.000000 -1.000000 0.000000
vn -0.000000 -1.000000 0.000000
vn -0.000000 -1.000000 0.000000
vn 0.000000 -1.000000 0.000000
vn 0.000000 -1.000000 0.000000
vn 0.000000 -1.000000 0.000000
vn 0.000000 -1.000000 0.000000
vn -0.000000 -1.000000 0.000000
vn -0.000000 -1.000000 0.000000
vn -0.000000 -1.000000 0.000000
vn -0.000000 -1.000000 0.000000
vn -0.397177 0.000000 0.917742
vn 0.397177 0.000000 0.917742
vn -0.000000 1.000000 -0.000000
vn 0.000000 1.000000 -0.000000
vn 0.000000 1.000000 -0.000000
vn -0.000000 1.000000 -0.000000
vn -0.000000 1.000000 -0.000000
vn -0.000000 1.000000 -0.000000
vn 0.000000 1.000000 -0.000000
vn 0.000000 1.000000 -0.000000
vn -0.000001 1.000000 -0.000000
vn -0.000001 1.000000 -0.000000
vn 0.836424 0.400870 0.373761
vn 0.836424 0.400870 -0.373762
vn 0.486182 0.869661 -0.085541
vn 0.486182 0.869661 0.085541
vn 0.397177 -0.000000 -0.917742
vn -0.397177 -0.000000 -0.917742
vn -0.929788 -0.000000 -0.368095
vn -0.836424 0.400870 -0.373762
vn 0.929788 0.000000 0.368095
vn -0.929788 0.000000 0.368095
vn -0.836424 0.400870 0.373762
vn 0.929788 -0.000000 -0.368095
vn -0.486182 0.869661 0.085541
vn -0.142038 0.946885 0.288501
vn 0.142038 0.946886 0.288501
vn 0.142038 0.946885 -0.288502
vn -0.142038 0.946885 -0.288501
vn -0.486182 0.869661 -0.085541
vn -0.186633 0.866564 0.462854
vn 0.186633 0.866564 -0.462854
vn 0.186633 0.866564 0.462854
vn -0.186633 0.866564 -0.462854
vn 0.000000 0.000000 1.000000
vn 0.000000 -0.000000 -1.000000
vn 1.000000 0.000000 0.000000
vn 0.000000 -1.000000 0.000000
vn -1.000000 0.000000 -0.000000
f 18//1 19//1 12//2 9//2
f 22//3 23//3 20//4 17//4
f 16//5 11//6 34//7 35//8
f 10//9 11//9 16//10 13//10
f 14//11 15//11 24//12 21//12
f 9//2 12//2 11//9 10//9
f 15//11 14//11 13//10 16//10
f 23//3 22//3 21//12 24//12
f 19//1 18//1 17//4 20//4
f 22//13 17//14 1//15 4//16
f 10//17 13//18 5//19 8//20
f 17//14 18//21 2//22 1//15
f 21//23 22//13 4//16 3//24
f 18//21 9//25 7//26 2//22
f 14//27 21//23 3//24 6//28
f 13//18 14//27 6//28 5//19
f 9//25 10//17 8//20 7//26
f 37//29 36//30 44//30 45//29
f 24//31 15//32 36//33 37//34
f 19//32 20//35 39//36 40//33
f 12//37 19//32 40//33 33//38
f 23//39 24//31 37//34 38//40
f 15//32 16//5 35//8 36//33
f 11//6 12//37 33//38 34//7
f 20//35 23//39 38//40 39//36
f 43//41 42//42 50//43 51//44
f 33//45 40//46 48//46 41//45
f 40//46 39//47 47//48 48//46
f 36//30 35//49 43//41 44//30
f 39//47 38//50 46//51 47//48
f 35//49 34//52 42//42 43//41
f 38//50 37//29 45//29 46//51
f 34//52 33//45 41//45 42//42
f 54//53 53//54 52//55 51//44 50//43 49//56 56//57 55//58
f 46//51 45//59 53//54 54//53
f 42//42 41//60 49//56 50//43
f 45//59 44//61 52//55 53//54
f 41//60 48//62 56//57 49//56
f 48//62 47//48 55//58 56//57
f 44//61 43//41 51//44 52//55
f 47//48 46//51 54//53 55//58
f 58//63 57//63 59//63 60//63
f 61//64 63//64 64//64 62//64
f 60//65 63//65 61//65 58//65
f 59//66 64//66 63//66 60//66
f 57//67 62//67 64//67 59//67
f 58//32 61//32 62//32 57//32

#
# Cube.015_Grey
#
usemtl Cube.015_Grey

v 73.265770 13.669837 139.415222
v 53.692436 13.669840 158.988556
v 53.692436 13.669783 -191.569199
v 73.265770 13.669786 -171.995865
v -73.265770 13.669786 -171.995865
v -53.692436 13.669783 -191.569199
v -53.692436 13.669840 158.988556
v -73.265770 13.669837 139.415222
v -58.902763 13.669843 177.578476
v -80.375496 13.669840 156.105743
v -80.375496 106.473633 156.105728
v -58.902763 106.473640 177.578461
v -80.375496 13.669784 -188.686386
v -58.902763 13.669780 -210.159119
v -58.902763 106.473579 -210.159134
v -80.375496 106.473579 -188.686401
v 80.375496 13.669840 156.105743
v 58.902763 13.669843 177.578476
v 58.902763 106.473640 177.578461
v 80.375496 106.473633 156.105728
v 58.902763 13.669780 -210.159119
v 80.375496 13.669784 -188.686386
v 80.375496 106.473579 -188.686401
v 58.902763 106.473579 -210.159134
v 73.265770 -0.750561 -171.995865
v 73.265770 -0.750510 139.415222
v -53.692436 -0.750564 -191.569199
v 53.692436 -0.750564 -191.569199
v -73.265770 -0.750510 139.415222
v -73.265770 -0.750561 -171.995865
v -53.692436 -0.750507 158.988556
v 53.692436 -0.750507 158.988556
v -52.345074 106.473640 166.325714
v -71.427223 106.473633 146.002731
v -71.427223 106.473579 -178.583405
v -52.345074 106.473579 -198.906387
v 52.345074 106.473579 -198.906387
v 71.427223 106.473579 -178.583405
v 71.427223 106.473633 146.002731
v 52.345074 106.473640 166.325714
v -52.345074 32.013657 166.325729
v -71.427223 32.013653 146.002747
v -71.427223 32.013599 -178.583389
v -52.345074 32.013599 -198.906372
v 52.345074 32.013599 -198.906372
v 71.427223 32.013599 -178.583389
v 71.427223 32.013653 146.002747
v 52.345074 32.013657 166.325729
v -46.864357 19.709448 145.499542
v -63.948544 19.709446 127.304436
v -63.948544 19.709398 -159.885071
v -46.864357 19.709396 -178.080170
v 46.864357 19.709396 -178.080170
v 63.948544 19.709398 -159.885071
v 63.948544 19.709446 127.304436
v 46.864357 19.709448 145.499542
v -13.073629 107.663551 -197.628448
v 13.073629 107.663551 -197.628448
v -13.073629 89.066536 -197.628448
v 13.073629 89.066536 -197.628448
v 13.073629 107.663544 -212.395157
v -13.073629 107.663544 -212.395157
v 13.073629 89.066528 -212.395157
v -13.073629 89.066528 -212.395157
v 0.000000 103.694733 -210.588593
v 0.000000 121.206924 -210.588593
v 3.860386 103.694733 -208.989563
v 3.860386 121.206924 -208.989563
v 5.459411 103.694733 -205.129181
v 5.459411 121.206924 -205.129181
v 3.860386 103.694733 -201.268814
v 3.860386 121.206924 -201.268814
v -0.000000 103.694733 -199.669785
v -0.000000 121.206924 -199.669785
v -3.860386 103.694733 -201.268814
v -3.860386 121.206924 -201.268814
v -5.459411 103.694733 -205.129181
v -5.459411 121.206924 -205.129181
v -3.860386 103.694733 -208.989563
v -3.860386 121.206924 -208.989563
v -0.000000 118.068474 -201.344406
v -0.000000 118.050285 -186.932465
v 2.007880 116.909233 -201.344406
v 2.007880 116.900154 -187.077393
v 2.007880 114.590736 -201.344406
v 2.007880 114.599838 -187.367264
v -0.000000 113.431496 -201.344406
v -0.000000 113.449684 -187.512192
v -2.007880 114.590736 -201.344406
v -2.007880 114.599838 -187.367264
v -2.007880 116.909233 -201.344406
v -2.007880 116.900154 -187.077393
v 2.007880 115.603752 -182.711395
v -0.000000 116.469452 -181.940399
v 2.007880 113.872375 -184.253387
v -0.000000 113.006706 -185.024368
v -2.007880 113.872375 -184.253387
v -2.007880 115.603752 -182.711395
v 2.491987 109.808365 -180.009125
v -0.000000 109.808365 -178.572861
v 2.491987 109.808365 -182.881622
v -0.000000 109.808365 -184.317886
v -2.491987 109.808365 -182.881622
v -2.491987 109.808365 -180.009125
v 3.860386 122.215218 -208.984985
v -0.000000 122.011368 -210.554932
v 5.459411 122.707336 -205.194794
v 3.860386 122.850937 -201.404617
v -0.000001 123.054787 -199.834671
v -3.860386 122.850937 -201.404617
v -5.459411 122.707336 -205.194794
v -3.860386 122.215218 -208.984985
v -0.000028 123.425980 -177.714035
v 3.860358 123.425980 -177.714035
v -3.860414 123.425980 -177.714035
v -0.000028 125.270195 -177.714035
v 3.860358 125.066345 -177.714035
v -3.860414 125.066345 -177.714035
v 0.000000 75.605919 -201.751694
v 0.000000 75.605919 -196.061066
v 4.498849 73.742439 -201.751694
v 4.498849 73.742439 -196.061066
v 6.362334 69.243584 -201.751694
v 6.362334 69.243584 -196.061066
v 4.498849 64.744736 -201.751694
v 4.498849 64.744736 -196.061066
v -0.000001 62.881252 -201.751694
v -0.000001 62.881256 -196.061066
v -4.498850 64.744736 -201.751694
v -4.498850 64.744736 -196.061066
v -6.362334 69.243584 -201.751694
v -6.362334 69.243584 -196.061066
v -4.498850 73.742439 -201.751694
v -4.498850 73.742439 -196.061066
vn -0.923880 -0.000000 -0.382683
vn -0.382683 -0.000000 -0.923880
vn 0.000000 -1.000000 0.000000
vn -0.382683 0.000000 0.923880
vn -0.923880 0.000000 0.382683
vn 0.382683 -0.000000 -0.923880
vn 0.382683 0.000000 0.923880
vn 0.923880 -0.000000 -0.382683
vn 0.923880 0.000000 0.382683
vn 0.000000 -0.000000 -1.000000
vn 0.000000 0.010503 -0.999945
vn 0.705709 0.002761 -0.708496
vn 0.707107 -0.000000 -0.707107
vn 0.999976 0.004380 0.005366
vn 1.000000 0.000000 0.000000
vn 0.884792 0.006538 0.465940
vn 0.707107 0.000000 0.707107
vn -0.000000 0.000000 1.000000
vn -0.884792 0.006538 0.465940
vn -0.707107 0.000000 0.707107
vn -0.999976 0.004380 0.005366
vn -1.000000 0.000000 -0.000000
vn -0.980063 0.012702 0.198283
vn -0.999912 0.008735 0.010033
vn -0.705709 0.002761 -0.708496
vn -0.707107 -0.000000 -0.707107
vn 0.498544 0.866864 0.000824
vn 0.493419 0.860142 0.129207
vn 0.493274 0.859924 0.131192
vn 1.000000 0.000000 0.000000
vn 1.000000 0.000000 0.000000
vn 1.000000 0.000000 0.000000
vn 0.498504 -0.866887 0.000851
vn 0.488148 -0.868073 -0.090334
vn 0.488337 -0.868110 -0.088945
vn -0.498504 -0.866887 0.000851
vn -0.488336 -0.868111 -0.088945
vn -0.488147 -0.868074 -0.090334
vn -0.473796 -0.862019 -0.180114
vn -1.000000 0.000000 0.000000
vn -1.000000 -0.000000 -0.000000
vn -1.000000 -0.000000 -0.000000
vn -0.498544 0.866864 0.000824
vn -0.493274 0.859924 0.131192
vn -0.493419 0.860142 0.129207
vn -0.998946 0.042735 -0.016761
vn -0.998968 0.042285 -0.016584
vn -0.995905 0.084161 -0.033008
vn 0.998946 0.042735 -0.016761
vn 0.998968 0.042285 -0.016584
vn 0.502650 0.658989 0.559533
vn 0.502592 0.657484 0.561352
vn 0.473798 -0.862018 -0.180114
vn -0.502592 0.657484 0.561352
vn -0.502650 0.658989 0.559533
vn 0.463129 -0.215171 -0.859775
vn 0.464394 0.402465 0.788898
vn -0.464394 0.402465 0.788898
vn -0.463127 -0.215167 -0.859777
vn 0.995905 0.084161 -0.033008
vn -0.000000 0.995921 -0.090228
vn -0.011012 0.995676 -0.092240
vn -0.000000 0.995573 -0.093997
vn 0.011011 0.995676 -0.092240
vn 0.000000 -0.995279 0.097058
vn 0.020094 -0.995078 0.097039
vn 0.000000 -0.995279 0.097058
vn -0.720593 0.004648 -0.693343
vn 0.720593 0.004648 -0.693343
vn 0.999912 0.008735 0.010033
vn -0.032966 0.994814 -0.096218
vn 0.000000 0.995355 -0.096270
vn 0.000000 0.021097 -0.999777
vn 0.980062 0.012702 0.198284
vn 0.000000 0.000000 1.000000
vn -0.020094 -0.995078 0.097038
vn 0.032966 0.994814 -0.096218
vn 1.000000 0.000000 0.000001
vn -1.000000 -0.000000 -0.000001
vn 0.000000 1.000000 -0.000000
vn 0.707106 0.707107 -0.000000
vn 0.707106 -0.707107 0.000000
vn -0.707106 -0.707107 0.000000
vn 0.000000 0.000001 1.000000
vn -0.707106 0.707107 -0.000000
vn 0.000000 -0.000001 -1.000000
f 139//68 140//69 161//69 164//68
f 164//70 161//70 162//70 159//70 160//70 166//70 165//70 163//70
f 141//71 142//72 163//72 165//71
f 140//69 137//73 162//73 161//69
f 136//74 141//71 165//71 166//74
f 137//73 138//75 159//75 162//73
f 135//76 136//74 166//74 160//76
f 142//72 139//68 164//68 163//72
f 138//75 135//76 160//76 159//75
f 199//77 200//78 202//79 201//80
f 201//80 202//79 204//81 203//82
f 203//82 204//81 206//83 205//84
f 205//84 206//83 208//85 207//85
f 207//85 208//85 210//86 209//87
f 209//87 210//86 212//88 211//89
f 212//88 210//86 244//90 245//91
f 211//89 212//88 214//92 213//93
f 213//93 214//92 200//78 199//77
f 199//70 201//70 203//70 205//70 207//70 209//70 211//70 213//70
f 215//94 216//95 218//96 217//94
f 217//97 218//98 220//99 219//97
f 219//100 220//101 222//102 221//100
f 221//103 222//104 224//105 223//103
f 224//105 222//104 230//106 231//106
f 223//107 224//108 226//109 225//107
f 225//110 226//111 216//112 215//110
f 215//77 217//77 219//77 221//77 223//77 225//77
f 232//113 231//114 237//115 238//115
f 220//99 218//98 227//116 229//117
f 226//109 224//108 231//114 232//113
f 218//96 216//95 228//118 227//119
f 222//102 220//101 229//120 230//120
f 216//112 226//111 232//121 228//122
f 233//70 234//70 238//70 237//70 236//70 235//70
f 230//123 229//123 235//123 236//123
f 227//119 228//118 234//124 233//124
f 228//122 232//121 238//125 234//125
f 231//126 230//126 236//126 237//126
f 229//117 227//116 233//127 235//127
f 239//128 240//128 246//128 245//128 244//129 243//130 242//131 241//128
f 208//132 206//133 248//133 247//134
f 214//92 212//88 245//91 246//135
f 204//81 202//79 239//136 241//137
f 243//130 244//129 252//138 250//139
f 200//78 214//92 246//135 240//140
f 202//79 200//78 240//140 239//136
f 206//83 204//81 241//137 242//141
f 247//142 248//142 251//142 250//142
f 249//142 247//142 250//142 252//142
f 210//143 208//132 247//134 249//143
f 242//131 243//130 250//139 251//144
f 206//83 242//141 251//145 248//145
f 244//90 210//86 249//146 252//146
f 253//147 254//147 256//148 255//148
f 255//148 256//148 258//82 257//82
f 257//82 258//82 260//149 259//149
f 259//149 260//149 262//70 261//70
f 261//70 262//70 264//150 263//150
f 263//150 264//150 266//89 265//89
f 256//151 254//151 268//151 266//151 264//151 262//151 260//151 258//151
f 265//89 266//89 268//152 267//152
f 267//152 268//152 254//147 253//147
f 253//153 255//153 257//153 259//153 261//153 263//153 265//153 267//153
