#
#
#

mtllib Bathtub.mtl


#
# 
#
g 


#
# _lambert1
#
usemtl _lambert1

v -2.264894 -0.728474 1.258285
v 1.715858 -0.871576 1.258285
v 1.715858 -1.158589 1.181380
v -2.264894 -1.015487 1.181380
v 2.169811 -1.119604 -0.712048
v 1.963886 -1.119604 -0.917974
v 1.963885 -1.325530 -0.712048
v 2.002870 -1.368697 -0.464020
v 2.212978 -1.158589 -0.464020
v 2.212978 -0.871576 -0.751033
v 2.002870 -0.871576 -0.961141
v 2.289883 -0.871576 -0.464020
v 2.002870 0.006511 -0.961141
v 1.715858 0.006511 -1.038045
v 1.715858 -0.871576 -1.038045
v -3.172418 -1.621600 1.580672
v 2.709790 -1.621600 1.580672
v 2.709790 0.006511 1.580672
v -3.172418 0.006511 1.580672
v 2.002870 -1.368697 0.684260
v 1.715858 -1.445601 -0.464020
v 1.715858 -1.445601 0.684260
v -2.264894 0.006511 1.258285
v 1.715858 0.006511 1.258285
v 1.715858 -1.368697 0.971272
v 2.289883 0.006511 0.684260
v 2.212978 0.006511 0.971272
v 2.002870 0.006511 1.181380
v -2.551906 0.006511 1.181380
v -2.762014 0.006511 0.971272
v -2.838919 0.006511 0.684260
v -2.838919 0.006511 -0.464020
v -3.172418 0.006511 -1.360432
v 1.963886 -1.325530 0.932287
v 2.212978 0.006511 -0.751033
v 2.212978 -1.158589 0.684260
v 1.963885 -1.119604 1.138213
v 2.169811 -1.119604 0.932287
v 2.289883 -0.871576 0.684260
v 2.212978 -0.871576 0.971272
v 2.002870 -0.871576 1.181380
v 2.289883 0.006511 -0.464020
v 2.709790 -1.621600 -1.360432
v 2.709790 0.006511 -1.360432
v 1.715858 -1.368697 -0.751033
v 1.715858 -1.158589 -0.961141
v -2.264894 -1.225595 0.971272
v -2.264894 -1.302499 0.684260
v -2.512921 -0.976502 1.138213
v -2.551906 -0.728474 1.181380
v -2.718848 -0.976502 0.932287
v -2.512921 -1.182428 0.932287
v -2.762014 -0.728474 0.971272
v -2.838919 -0.728474 0.684260
v -2.264894 -1.302499 -0.464020
v -2.551906 -1.225595 0.684260
v -2.762014 -1.015487 0.684260
v -2.264894 0.006511 -1.038045
v -2.264894 -0.728474 -1.038045
v -3.172418 -1.621600 -1.360432
v -2.264894 -1.225595 -0.751033
v -2.264894 -1.015487 -0.961141
v -2.551906 -1.225595 -0.464020
v -2.512921 -0.976502 -0.917974
v -2.551906 -0.728474 -0.961141
v -2.762014 -1.015487 -0.464020
v -2.718848 -0.976502 -0.712048
v -2.838919 -0.728474 -0.464020
v -2.762014 -0.728474 -0.751033
v -2.512921 -1.182428 -0.712048
v -2.762014 0.006511 -0.751033
v -2.551906 0.006511 -0.961141
vn 0.018703 0.070504 -0.997336
vn -0.014809 0.067021 -0.997642
vn 0.029765 0.495999 -0.867813
vn 0.004141 0.504521 -0.863390
vn -0.792011 0.430988 0.432399
vn -0.430988 0.432399 0.792010
vn -0.432399 0.792010 0.430988
vn -0.864777 0.500613 0.039335
vn -0.500830 0.864643 0.039529
vn -0.500645 0.048841 0.864274
vn -0.864105 0.049070 0.500913
vn -0.996734 0.063009 0.050518
vn -0.500000 -0.000000 0.866025
vn -0.018341 0.000000 0.999832
vn -0.014809 0.067021 0.997642
vn 0.000000 0.000000 1.000000
vn 0.000000 0.000000 1.000000
vn 0.000000 0.000000 1.000000
vn 0.000000 0.000000 1.000000
vn -0.500613 0.864777 -0.039335
vn 0.016411 0.998487 -0.052477
vn 0.016411 0.998487 0.052477
vn 0.018017 0.000000 -0.999838
vn -0.018341 0.000000 -0.999832
vn -0.430988 0.792010 -0.432399
vn 0.016341 0.867077 -0.497906
vn -0.866025 -0.000000 0.500000
vn -0.864642 0.500831 -0.039529
vn -0.432399 0.430988 -0.792010
vn -0.792010 0.432399 -0.430988
vn -0.996734 0.063009 -0.050518
vn -0.864274 0.048841 -0.500645
vn -0.500913 0.049070 -0.864105
vn -0.998568 0.000000 0.053505
vn -0.998568 -0.000000 -0.053505
vn 1.000000 0.000000 0.000000
vn 1.000000 0.000000 0.000000
vn -0.866025 -0.000000 -0.500000
vn -0.500000 0.000000 -0.866025
vn 0.004063 0.504592 0.863348
vn 0.016423 0.867119 0.497831
vn 0.042170 0.863673 -0.502285
vn 0.050607 0.997317 -0.052891
vn 0.430988 0.432399 -0.792010
vn 0.500639 0.056006 -0.863843
vn 0.792010 0.430988 -0.432399
vn 0.432399 0.792010 -0.430988
vn 0.863648 0.056259 -0.500945
vn 0.996156 0.071876 -0.050081
vn 0.864777 0.500613 -0.039335
vn 0.050607 0.997317 0.052891
vn 0.500000 -0.000000 -0.866025
vn 0.500830 0.864643 -0.039529
vn 0.018017 0.000000 0.999838
vn 0.018703 0.070504 0.997336
vn 0.000000 -1.000000 0.000000
vn 0.866025 -0.000000 -0.500000
vn 0.042233 0.863629 0.502355
vn 0.029698 0.495926 0.867857
vn 0.998568 0.000000 -0.053505
vn 0.500613 0.864777 0.039335
vn 0.430988 0.792010 0.432399
vn 0.432399 0.430988 0.792010
vn 0.500945 0.056259 0.863649
vn 0.864642 0.500831 0.039529
vn 0.792010 0.432399 0.430988
vn 0.996156 0.071876 0.050081
vn 0.863843 0.056006 0.500639
vn 0.000000 0.000000 -1.000000
vn 0.998568 0.000000 0.053505
vn 0.500000 0.000000 0.866025
vn 0.866025 0.000000 0.500000
vn -1.000000 0.000000 0.000000
vn -1.000000 0.000000 0.000000
vn -0.000001 1.000000 -0.000000
vn 0.000000 1.000000 -0.000000
vn -0.000000 1.000000 -0.000000
vn 0.000000 1.000000 -0.000000
vn 0.000000 1.000000 0.000000
vn 0.000000 1.000000 0.000000
vn 0.000000 1.000000 0.000000
vn 0.000000 1.000000 0.000000
vn 0.000000 1.000000 0.000000
vn 0.000000 1.000000 0.000000
vn 0.000000 1.000000 0.000000
vn 0.000000 1.000000 0.000000
vn 0.000000 1.000000 0.000000
vn 0.000000 1.000000 0.000000
vn 0.000000 1.000000 -0.000000
vn 0.000000 1.000000 -0.000000
vn 0.000000 1.000000 0.000000
vn 0.000000 1.000000 -0.000000
vn 0.000001 1.000000 -0.000000
vn 0.000000 1.000000 0.000000
vn 0.000000 1.000000 0.000000
vn 0.000000 1.000000 0.000001
vt 0.275325 0.124501
vt 0.278782 0.401499
vt 0.254818 0.125523
vt 0.258314 0.402361
vt 0.120417 0.444982
vt 0.102560 0.434962
vt 0.119216 0.423230
vt 0.138236 0.444409
vt 0.137973 0.424344
vt 0.093765 0.450159
vt 0.111632 0.460507
vt 0.118007 0.463950
vt 0.138534 0.464678
vt 0.015625 0.423775
vt 0.015801 0.403096
vt 0.077346 0.424860
vt 0.076762 0.404233
vt 0.799468 0.556281
vt 0.390922 0.556307
vt 0.799461 0.443201
vt 0.390915 0.443227
vt 0.218510 0.423214
vt 0.217519 0.403204
vt 0.138186 0.404297
vt 0.326262 0.121859
vt 0.339679 0.398799
vt 0.237151 0.421605
vt 0.237911 0.403012
vt 0.080888 0.513241
vt 0.063064 0.502836
vt 0.218554 0.443478
vt 0.259154 0.420101
vt 0.249399 0.438108
vt 0.236659 0.443917
vt 0.218709 0.463779
vt 0.239325 0.462700
vt 0.278521 0.422017
vt 0.139163 0.525581
vt 0.118375 0.525636
vt 0.219531 0.524631
vt 0.390934 0.760580
vt 0.277842 0.556314
vt 0.277854 0.760587
vt 0.264800 0.446654
vt 0.274787 0.428577
vt 0.240199 0.524198
vt 0.340371 0.419614
vt 0.328161 0.458154
vt 0.318153 0.476207
vt 0.096501 0.422641
vt 0.097265 0.404577
vt 0.117754 0.404749
vt 0.234309 0.126335
vt 0.213849 0.127102
vt 0.254671 0.107499
vt 0.273343 0.103972
vt 0.231403 0.086297
vt 0.249237 0.096291
vt 0.232472 0.107916
vt 0.233903 0.067440
vt 0.213399 0.066592
vt 0.213644 0.086888
vt 0.134382 0.128215
vt 0.324940 0.101209
vt 0.213908 0.106997
vt 0.021999 0.125907
vt 0.072974 0.127242
vt 0.799481 0.760555
vt 0.265657 0.026520
vt 0.283529 0.036843
vt 0.240117 0.070771
vt 0.258026 0.081051
vt 0.113945 0.128071
vt 0.093485 0.127746
vt 0.212970 0.015625
vt 0.233794 0.015685
vt 0.133578 0.108111
vt 0.115162 0.109554
vt 0.093466 0.109984
vt 0.074611 0.106792
vt 0.133508 0.087820
vt 0.115467 0.087381
vt 0.133300 0.067501
vt 0.112700 0.068686
vt 0.799488 0.873635
vt 0.390941 0.873660
vt 0.103937 0.092436
vt 0.132511 0.016600
vt 0.022815 0.105081
vt 0.111830 0.017135
vt 0.912561 0.760548
vt 0.912548 0.556274
vt 0.034557 0.074339
vt 0.045293 0.056709
vt 0.078190 0.100898
vt 0.088903 0.083242
vt 0.776380 0.331761
vt 0.776375 0.252008
vt 0.799547 0.394020
vt 0.799534 0.189746
vt 0.736504 0.212141
vt 0.460022 0.212159
vt 0.390987 0.189772
vt 0.756438 0.217482
vt 0.771032 0.232074
vt 0.440088 0.217501
vt 0.771040 0.351696
vt 0.425496 0.232095
vt 0.756448 0.366290
vt 0.420156 0.252030
vt 0.391000 0.394045
vt 0.420161 0.331783
vt 0.425503 0.351717
vt 0.440097 0.366309
vt 0.736514 0.371632
vt 0.460032 0.371649
f 1/1/1 2/2/2 4/3/3
f 4/3/3 2/2/2 3/4/4
f 5/5/5 6/6/6 7/7/7
f 5/5/5 7/7/7 9/8/8
f 9/8/8 7/7/7 8/9/9
f 6/6/6 5/5/5 11/10/10
f 11/10/10 5/5/5 10/11/11
f 10/12/11 5/5/5 12/13/12
f 12/13/12 5/5/5 9/8/8
f 13/14/13 14/15/14 11/16/10
f 11/16/10 14/15/14 15/17/15
f 16/18/16 17/19/17 19/20/18
f 19/20/18 17/19/17 18/21/19
f 20/22/20 8/9/9 22/23/21
f 22/23/21 8/9/9 21/24/22
f 23/25/23 24/26/24 1/1/1
f 1/1/1 24/26/24 2/2/2
f 20/22/20 22/23/21 34/27/25
f 34/27/25 22/23/21 25/28/26
f 35/29/27 13/30/13 10/11/11
f 10/11/11 13/30/13 11/10/10
f 36/31/28 9/8/8 20/22/20
f 20/22/20 9/8/8 8/9/9
f 34/27/25 37/32/29 38/33/30
f 36/31/28 38/34/30 39/35/31
f 39/35/31 38/34/30 40/36/32
f 3/4/4 2/2/2 37/32/29
f 37/32/29 2/2/2 41/37/33
f 42/38/34 35/39/27 12/13/12
f 12/13/12 35/39/27 10/12/11
f 39/35/31 12/13/12 36/31/28
f 36/31/28 12/13/12 9/8/8
f 34/27/25 38/34/30 20/22/20
f 20/22/20 38/34/30 36/31/28
f 37/32/29 34/27/25 3/4/4
f 3/4/4 34/27/25 25/28/26
f 26/40/35 42/38/34 39/35/31
f 39/35/31 42/38/34 12/13/12
f 17/19/36 43/41/36 18/42/36
f 18/42/36 43/41/36 44/43/37
f 38/33/30 37/32/29 40/44/32
f 40/44/32 37/32/29 41/45/33
f 27/46/38 26/40/35 40/36/32
f 40/36/32 26/40/35 39/35/31
f 24/26/24 28/47/39 2/2/2
f 2/2/2 28/47/39 41/37/33
f 28/48/39 27/49/38 41/45/33
f 41/45/33 27/49/38 40/44/32
f 11/16/10 15/17/15 6/50/6
f 6/50/6 15/17/15 46/51/40
f 8/9/9 7/7/7 21/24/22
f 21/24/22 7/7/7 45/52/41
f 7/7/7 6/50/6 45/52/41
f 45/52/41 6/50/6 46/51/40
f 4/3/3 3/4/4 47/53/42
f 47/53/42 3/4/4 25/28/26
f 47/53/42 25/28/26 48/54/43
f 48/54/43 25/28/26 22/23/21
f 4/3/3 49/55/44 1/1/1
f 1/1/1 49/55/44 50/56/45
f 51/57/46 49/58/44 52/59/47
f 53/60/48 51/57/46 54/61/49
f 54/61/49 51/57/46 57/62/50
f 55/63/51 48/54/43 21/24/22
f 21/24/22 48/54/43 22/23/21
f 29/64/52 23/25/23 50/56/45
f 50/56/45 23/25/23 1/1/1
f 56/65/53 52/59/47 48/54/43
f 48/54/43 52/59/47 47/53/42
f 58/66/54 59/67/55 14/15/14
f 14/15/14 59/67/55 15/17/15
f 60/68/56 43/41/56 16/18/56
f 16/18/56 43/41/56 17/19/56
f 30/69/57 29/70/52 53/71/48
f 53/71/48 29/70/52 50/72/45
f 21/24/22 45/52/41 55/63/51
f 55/63/51 45/52/41 61/73/58
f 46/51/40 15/17/15 62/74/59
f 62/74/59 15/17/15 59/67/55
f 45/52/41 46/51/40 61/73/58
f 61/73/58 46/51/40 62/74/59
f 31/75/60 30/76/57 54/61/49
f 54/61/49 30/76/57 53/60/48
f 63/77/61 55/63/51 70/78/62
f 70/78/62 55/63/51 61/73/58
f 62/74/59 59/67/55 64/79/63
f 64/79/63 59/67/55 65/80/64
f 66/81/65 67/82/66 68/83/67
f 68/83/67 67/82/66 69/84/68
f 33/85/69 44/86/69 60/68/69
f 60/68/69 44/86/69 43/41/69
f 52/59/47 49/55/44 47/53/42
f 47/53/42 49/55/44 4/3/3
f 49/58/44 51/57/46 50/72/45
f 50/72/45 51/57/46 53/71/48
f 70/78/62 64/79/63 67/87/66
f 51/57/46 52/59/47 57/62/50
f 57/62/50 52/59/47 56/65/53
f 32/88/70 31/75/60 68/83/67
f 68/83/67 31/75/60 54/61/49
f 48/54/43 55/63/51 56/65/53
f 56/65/53 55/63/51 63/77/61
f 57/62/50 66/81/65 54/61/49
f 54/61/49 66/81/65 68/83/67
f 56/65/53 63/77/61 57/62/50
f 57/62/50 63/77/61 66/81/65
f 58/66/54 72/89/71 59/67/55
f 59/67/55 72/89/71 65/80/64
f 71/90/72 32/88/70 69/84/68
f 69/84/68 32/88/70 68/83/67
f 60/68/73 16/18/74 33/91/74
f 33/91/74 16/18/74 19/92/74
f 72/93/71 71/94/72 65/95/64
f 65/95/64 71/94/72 69/96/68
f 64/79/63 70/78/62 62/74/59
f 62/74/59 70/78/62 61/73/58
f 70/78/62 67/82/66 63/77/61
f 63/77/61 67/82/66 66/81/65
f 67/87/66 64/79/63 69/96/68
f 69/96/68 64/79/63 65/95/64
f 31/97/75 32/98/76 19/99/77
f 19/99/77 32/98/76 33/100/78
f 58/101/79 14/102/80 33/100/81
f 33/100/81 14/102/80 44/103/82
f 58/101/83 33/100/84 72/104/85
f 32/98/86 71/105/82 33/100/84
f 71/105/82 72/104/85 33/100/84
f 14/102/86 13/106/86 44/103/82
f 31/97/87 19/99/88 30/107/89
f 13/106/86 35/108/82 44/103/82
f 30/107/89 19/99/88 29/109/90
f 35/108/82 42/110/86 44/103/82
f 44/103/82 42/110/86 18/111/91
f 42/110/86 26/112/92 18/111/91
f 26/112/92 27/113/93 18/111/91
f 27/113/93 28/114/94 18/111/91
f 29/109/90 19/99/88 23/115/95
f 19/99/88 18/111/91 23/115/95
f 23/115/95 18/111/91 24/116/96
f 18/111/91 28/114/94 24/116/96


#
# 
#
g 


#
# _lambert1
#
usemtl _lambert1

v 2.287132 -0.229548 -0.081228
v 2.287132 -0.310776 -0.114874
v 2.287132 -0.392003 -0.081228
v 2.287132 -0.425649 0.000000
v 2.287132 -0.392003 0.081228
v 2.287132 -0.310776 0.114874
v 2.287132 -0.229548 0.081228
v 2.287132 -0.195902 0.000000
v 2.260381 -0.229548 -0.081228
v 2.260381 -0.310776 -0.114874
v 2.260381 -0.392004 -0.081228
v 2.260381 -0.425649 0.000000
v 2.260381 -0.392004 0.081228
v 2.260381 -0.310776 0.114874
v 2.260381 -0.229548 0.081228
v 2.260381 -0.195902 0.000000
v 2.260381 -0.310776 0.000000
vn -0.000001 0.707105 -0.707108
vn -0.000000 -0.000003 -1.000000
vn -0.000001 0.707103 -0.707110
vn 0.000000 -0.000002 -1.000000
vn 0.000002 -0.707103 -0.707110
vn 0.000001 -0.707104 -0.707109
vn -0.000002 -1.000000 0.000000
vn -0.000002 -1.000000 0.000000
vn 0.000001 -0.707108 0.707106
vn 0.000001 -0.707108 0.707105
vn 0.000000 0.000003 1.000000
vn -0.000000 0.000003 1.000000
vn -0.000002 0.707110 0.707104
vn -0.000001 0.707108 0.707106
vn -0.000000 1.000000 0.000000
vn -0.000000 1.000000 0.000000
vn -1.000000 -0.000002 0.000000
vn -1.000000 -0.000002 0.000000
vn -1.000000 -0.000001 0.000000
vn -1.000000 0.000000 -0.000000
vn -1.000000 0.000000 0.000000
vn -1.000000 -0.000002 0.000000
vn -1.000000 -0.000002 0.000000
vt 0.144502 0.648074
vt 0.141026 0.643053
vt 0.146029 0.647016
vt 0.142554 0.641995
vt 0.140725 0.641663
vt 0.141818 0.635655
vt 0.143646 0.635987
vt 0.142588 0.634460
vt 0.147609 0.630984
vt 0.148667 0.632512
vt 0.148999 0.630684
vt 0.155007 0.631776
vt 0.154675 0.633604
vt 0.156202 0.632547
vt 0.159678 0.637567
vt 0.158150 0.638625
vt 0.159979 0.638957
vt 0.158886 0.644965
vt 0.157058 0.644633
vt 0.158116 0.646160
vt 0.153095 0.649636
vt 0.152037 0.648109
vt 0.151705 0.649936
vt 0.145697 0.648844
vt 0.150352 0.640310
f 73/117/97 74/118/98 81/119/99
f 81/119/99 74/118/98 82/120/100
f 74/121/98 75/122/101 82/120/100
f 82/120/100 75/122/101 83/123/102
f 75/124/101 76/125/103 83/123/102
f 83/123/102 76/125/103 84/126/104
f 76/127/103 77/128/105 84/126/104
f 84/126/104 77/128/105 85/129/106
f 77/130/105 78/131/107 85/129/106
f 85/129/106 78/131/107 86/132/108
f 78/133/107 79/134/109 86/132/108
f 86/132/108 79/134/109 87/135/110
f 79/136/109 80/137/111 87/135/110
f 87/135/110 80/137/111 88/138/112
f 80/139/111 73/140/97 88/138/112
f 88/138/112 73/140/97 81/119/99
f 81/119/113 82/120/114 89/141/115
f 82/120/114 83/123/116 89/141/115
f 83/123/116 84/126/117 89/141/115
f 84/126/117 85/129/118 89/141/115
f 85/129/118 86/132/119 89/141/115
f 86/132/119 87/135/117 89/141/115
f 87/135/117 88/138/117 89/141/115
f 88/138/117 81/119/113 89/141/115


#
# 
#
g 


#
# _lambert1
#
usemtl _lambert1

v 1.612479 -1.446580 -0.113208
v 1.499344 -1.442508 -0.160100
v 1.386209 -1.438437 -0.113208
v 1.339347 -1.436750 0.000000
v 1.386209 -1.438437 0.113208
v 1.499344 -1.442508 0.160100
v 1.612479 -1.446580 0.113208
v 1.659341 -1.448267 0.000000
v 1.613820 -1.409321 -0.113208
v 1.500685 -1.405249 -0.160100
v 1.387550 -1.401177 -0.113208
v 1.340688 -1.399491 0.000000
v 1.387550 -1.401177 0.113208
v 1.500685 -1.405249 0.160100
v 1.613820 -1.409321 0.113208
v 1.660682 -1.411007 0.000000
v 1.500685 -1.405249 0.000000
vn 0.706647 -0.025434 -0.707109
vn -0.000001 0.000001 -1.000000
vn 0.706648 -0.025435 -0.707108
vn 0.000000 0.000001 -1.000000
vn -0.706650 0.025432 -0.707106
vn -0.706649 0.025431 -0.707107
vn -0.999353 0.035962 -0.000002
vn -0.999353 0.035962 -0.000001
vn -0.706648 0.025433 0.707108
vn -0.706647 0.025433 0.707109
vn -0.000000 -0.000002 1.000000
vn 0.000000 -0.000001 1.000000
vn 0.706650 -0.025432 0.707106
vn 0.706650 -0.025431 0.707106
vn 0.999353 -0.035962 0.000000
vn 0.999353 -0.035962 -0.000000
vn 0.035967 0.999353 0.000000
vn 0.035967 0.999353 0.000000
vn 0.035966 0.999353 -0.000000
vn 0.035966 0.999353 0.000000
vn 0.035965 0.999353 -0.000001
vn 0.035966 0.999353 -0.000001
vn 0.035967 0.999353 0.000000
vn 0.035967 0.999353 0.000000
vn 0.035967 0.999353 0.000000
vt 0.112431 0.657530
vt 0.104993 0.653393
vt 0.113689 0.655266
vt 0.106252 0.651130
vt 0.103762 0.651840
vt 0.101428 0.643655
vt 0.103918 0.642945
vt 0.101655 0.641686
vt 0.105792 0.634249
vt 0.108055 0.635508
vt 0.107345 0.633017
vt 0.115529 0.630684
vt 0.116239 0.633174
vt 0.117498 0.630911
vt 0.124936 0.635048
vt 0.123677 0.637311
vt 0.126167 0.636601
vt 0.128501 0.644785
vt 0.126011 0.645495
vt 0.128274 0.646754
vt 0.124137 0.654191
vt 0.121874 0.652933
vt 0.122584 0.655423
vt 0.114399 0.657757
vt 0.114964 0.644220
f 90/142/120 91/143/121 98/144/122
f 98/144/122 91/143/121 99/145/123
f 91/146/121 92/147/124 99/145/123
f 99/145/123 92/147/124 100/148/125
f 92/149/124 93/150/126 100/148/125
f 100/148/125 93/150/126 101/151/127
f 93/152/126 94/153/128 101/151/127
f 101/151/127 94/153/128 102/154/129
f 94/155/128 95/156/130 102/154/129
f 102/154/129 95/156/130 103/157/131
f 95/158/130 96/159/132 103/157/131
f 103/157/131 96/159/132 104/160/133
f 96/161/132 97/162/134 104/160/133
f 104/160/133 97/162/134 105/163/135
f 97/164/134 90/165/120 105/163/135
f 105/163/135 90/165/120 98/144/122
f 98/144/136 99/145/137 106/166/138
f 99/145/137 100/148/139 106/166/138
f 100/148/139 101/151/140 106/166/138
f 101/151/140 102/154/141 106/166/138
f 102/154/141 103/157/142 106/166/138
f 103/157/142 104/160/143 106/166/138
f 104/160/143 105/163/144 106/166/138
f 105/163/144 98/144/136 106/166/138


#
# 
#
g 


#
# _lambert1
#
usemtl _lambert1

v 2.066268 0.389638 0.063808
v 2.676887 0.389638 0.063808
v 2.066268 0.517254 0.063808
v 2.676887 0.517254 0.063808
v 2.066268 0.517254 -0.063808
v 2.676887 0.517254 -0.063808
v 2.066268 0.389638 -0.063808
v 2.676887 0.389638 -0.063808
v 2.195059 0.517254 0.063808
v 2.195059 0.517254 -0.063808
v 2.195059 0.389638 -0.063808
v 2.195059 0.389638 0.063808
v 2.066268 0.289195 -0.063808
v 2.195059 0.289195 -0.063808
v 2.195059 0.289195 0.063808
v 2.066268 0.289195 0.063808
v 2.676887 0.006511 0.190417
v 2.676887 0.582198 0.190417
v 2.676887 0.582198 -0.190417
v 2.676887 0.006511 -0.190417
v 2.706628 0.006511 0.190417
v 2.706628 0.582198 0.190417
v 2.706628 0.582198 -0.190417
v 2.706628 0.006511 -0.190417
vn 0.000000 0.000000 1.000000
vn 0.000000 1.000000 0.000000
vn 0.000000 0.000000 -1.000000
vn 0.000000 0.000000 -1.000000
vn 0.000000 -1.000000 0.000000
vn -1.000000 0.000000 0.000000
vn 0.000000 1.000000 0.000000
vn 0.000000 -1.000000 0.000000
vn 1.000000 0.000000 0.000000
vn -1.000000 0.000000 0.000000
vt 0.122077 0.742071
vt 0.122217 0.751015
vt 0.113215 0.742210
vt 0.113355 0.751154
vt 0.104271 0.742350
vt 0.113076 0.733348
vt 0.104132 0.733488
vt 0.112936 0.724404
vt 0.121938 0.733209
vt 0.121798 0.724265
vt 0.128914 0.733099
vt 0.137858 0.732959
vt 0.129052 0.741962
vt 0.137996 0.741822
vt 0.070809 0.742874
vt 0.070671 0.734012
vt 0.104548 0.760075
vt 0.104687 0.768937
vt 0.071087 0.760599
vt 0.071226 0.769462
vt 0.104409 0.751212
vt 0.070948 0.751737
vt 0.128774 0.724155
vt 0.111524 0.759966
vt 0.111385 0.751103
vt 0.129192 0.750906
vt 0.170505 0.761696
vt 0.170504 0.752832
vt 0.179299 0.766205
vt 0.179294 0.726221
vt 0.161641 0.761697
vt 0.152848 0.766209
vt 0.161640 0.752833
vt 0.152843 0.726224
vt 0.181365 0.766205
vt 0.181360 0.726221
vt 0.152848 0.768274
vt 0.179299 0.768271
vt 0.150777 0.726225
vt 0.150782 0.766209
vt 0.179294 0.724155
vt 0.152843 0.724159
vt 0.179304 0.808255
vt 0.152853 0.808258
f 107/167/145 118/168/145 109/169/145
f 109/169/145 118/168/145 115/170/145
f 109/169/146 115/171/146 111/172/146
f 111/172/146 115/171/146 116/173/146
f 111/172/147 116/174/148 113/175/148
f 113/175/148 116/174/148 117/176/148
f 119/177/149 120/178/149 122/179/149
f 122/179/149 120/178/149 121/180/149
f 113/175/150 107/167/150 111/172/150
f 111/172/150 107/167/150 109/169/150
f 115/171/146 110/181/146 116/173/146
f 116/173/146 110/181/146 112/182/151
f 117/183/148 116/184/148 114/185/148
f 114/185/148 116/184/148 112/186/148
f 118/187/149 117/183/149 108/188/149
f 108/188/149 117/183/149 114/185/152
f 115/171/145 118/187/145 110/181/145
f 110/181/145 118/187/145 108/188/145
f 113/175/148 117/176/148 119/177/148
f 119/177/148 117/176/148 120/189/148
f 117/183/153 118/187/153 120/190/153
f 120/190/153 118/187/153 121/191/153
f 118/168/145 107/167/145 121/192/145
f 121/192/145 107/167/145 122/179/145
f 107/167/150 113/175/150 122/179/150
f 122/179/150 113/175/150 119/177/150
f 110/193/150 108/194/150 124/195/150
f 124/195/150 108/194/150 123/196/154
f 112/197/154 110/193/150 125/198/154
f 125/198/154 110/193/150 124/195/150
f 112/197/154 125/198/154 114/199/150
f 114/199/150 125/198/154 126/200/154
f 108/194/150 114/199/150 123/196/154
f 123/196/154 114/199/150 126/200/154
f 124/195/145 123/196/145 128/201/145
f 128/201/145 123/196/145 127/202/145
f 125/198/146 124/195/146 129/203/146
f 129/203/146 124/195/146 128/204/146
f 126/200/148 125/198/148 130/205/148
f 130/205/148 125/198/148 129/206/148
f 123/196/149 126/200/149 127/207/149
f 127/207/149 126/200/149 130/208/149
f 128/204/153 127/209/153 129/203/153
f 129/203/153 127/209/153 130/210/153
