# Blender 3.5.0
# www.blender.org
mtllib 18 Bed.mtl
o Plane.001
v -10.000000 1.000000 16.000000
v 10.000000 1.000000 16.000000
v -10.000000 1.000000 -16.000000
v 10.000000 1.000000 -16.000000
v -10.000000 4.000000 -16.000000
v -10.000000 4.000000 16.000000
v 10.000000 4.000000 16.000000
v 10.000000 4.000000 -16.000000
vn -0.0000 -1.0000 -0.0000
vn -0.0000 1.0000 -0.0000
vn 1.0000 -0.0000 -0.0000
vn -1.0000 -0.0000 -0.0000
vn -0.0000 -0.0000 -1.0000
vn -0.0000 -0.0000 1.0000
vt 0.586236 0.648883
vt 0.586236 0.648883
vt 0.386698 0.648883
vt 0.386698 0.648883
vt 0.386698 0.488992
vt 0.586236 0.488992
vt 0.586236 0.488992
vt 0.386698 0.488992
s 0
usemtl Material
f 1/1/1 3/3/1 4/4/1 2/2/1
f 6/6/2 7/7/2 8/8/2 5/5/2
f 2/2/3 4/4/3 8/8/3 7/7/3
f 3/3/4 1/1/4 6/6/4 5/5/4
f 4/4/5 3/3/5 5/5/5 8/8/5
f 1/1/6 2/2/6 7/7/6 6/6/6
o Plane.002
v -9.000000 4.000000 -16.000000
v -9.000000 4.000000 15.000000
v 9.000000 4.000000 15.000000
v 9.000000 4.000000 -16.000000
v -9.000000 7.000000 -16.000000
v -9.000000 7.000000 15.000000
v 9.000000 7.000000 15.000000
v 9.000000 7.000000 -16.000000
vn -0.0000 -1.0000 -0.0000
vn -0.0000 1.0000 -0.0000
vn 1.0000 -0.0000 -0.0000
vn -1.0000 -0.0000 -0.0000
vn -0.0000 -0.0000 -1.0000
vn -0.0000 -0.0000 1.0000
vt 0.733720 0.655446
vt 0.962290 0.655446
vt 0.962290 0.655446
vt 0.733720 0.655446
vt 0.733720 0.448922
vt 0.962290 0.448922
vt 0.962290 0.448922
vt 0.733720 0.448922
s 0
usemtl Material
f 10/10/7 9/9/7 12/12/7 11/11/7
f 14/14/8 15/15/8 16/16/8 13/13/8
f 11/11/9 12/12/9 16/16/9 15/15/9
f 9/9/10 10/10/10 14/14/10 13/13/10
f 12/12/11 9/9/11 13/13/11 16/16/11
f 10/10/12 11/11/12 15/15/12 14/14/12
o Plane.003
v 9.388163 4.000000 -3.000000
v -9.388163 4.000000 -3.000000
v -9.388164 4.000000 15.285009
v 9.388162 4.000000 15.285009
v 9.103366 7.227799 -3.000000
v 9.388163 6.943003 -3.000000
v -9.388163 6.943003 -3.000000
v -9.103366 7.227799 -3.000000
v -9.388164 6.943003 15.285009
v -9.103367 7.227799 14.715203
v 9.388162 6.943003 15.285009
v 9.103365 7.227799 14.715203
vn -0.0000 -1.0000 -0.0000
vn 1.0000 -0.0000 -0.0000
vn -0.0000 1.0000 -0.0000
vn -1.0000 -0.0000 -0.0000
vn -0.0000 -0.0000 1.0000
vn -0.7071 0.7071 -0.0000
vn -0.0000 0.8945 0.4471
vn 0.7071 0.7071 -0.0000
vn -0.0000 -0.0000 -1.0000
vt 0.042984 0.965083
vt 0.042984 0.965083
vt 0.279411 0.965083
vt 0.279411 0.965083
vt 0.042984 0.850220
vt 0.042984 0.860355
vt 0.042984 0.860355
vt 0.042984 0.850220
vt 0.279411 0.860355
vt 0.272043 0.850220
vt 0.279411 0.860355
vt 0.272043 0.850220
s 0
usemtl Material
f 18/18/13 17/17/13 20/20/13 19/19/13
f 20/20/14 17/17/14 22/22/14 27/27/14
f 24/24/15 26/26/15 28/28/15 21/21/15
f 18/18/16 19/19/16 25/25/16 23/23/16
f 19/19/17 20/20/17 27/27/17 25/25/17
f 23/23/18 25/25/18 26/26/18 24/24/18
f 25/25/19 27/27/19 28/28/19 26/26/19
f 27/27/20 22/22/20 21/21/20 28/28/20
f 17/17/21 18/18/21 23/23/21 24/24/21 21/21/21 22/22/21
o Plane.004
v -11.000000 0.000000 -15.000000
v 11.000000 0.000000 -15.000000
v -11.000000 0.000000 -19.000000
v 11.000000 0.000000 -19.000000
v -10.492275 1.000000 -19.000000
v -10.492275 1.000000 -15.000000
v 10.492275 1.000000 -15.000000
v 10.492275 1.000000 -19.000000
vn -0.0000 -1.0000 -0.0000
vn -0.0000 1.0000 -0.0000
vn 0.8917 0.4527 -0.0000
vn -0.8917 0.4527 -0.0000
vn -0.0000 -0.0000 -1.0000
vn -0.0000 -0.0000 1.0000
vt 0.511051 0.632345
vt 0.511051 0.632345
vt 0.475134 0.632345
vt 0.475134 0.632345
vt 0.475134 0.571824
vt 0.511051 0.571824
vt 0.511051 0.571824
vt 0.475134 0.571824
s 0
usemtl Material
f 29/29/22 31/31/22 32/32/22 30/30/22
f 34/34/23 35/35/23 36/36/23 33/33/23
f 30/30/24 32/32/24 36/36/24 35/35/24
f 31/31/25 29/29/25 34/34/25 33/33/25
f 32/32/26 31/31/26 33/33/26 36/36/26
f 29/29/27 30/30/27 35/35/27 34/34/27
o Plane.005
v -10.000000 1.000000 -18.000000
v -10.000000 1.000000 -16.000000
v 10.000000 1.000000 -16.000000
v 10.000000 1.000000 -18.000000
v -10.000000 13.000000 -18.000000
v -10.000000 13.000000 -16.000000
v 10.000000 13.000000 -16.000000
v 10.000000 13.000000 -18.000000
vn -0.0000 -1.0000 -0.0000
vn -0.0000 1.0000 -0.0000
vn 1.0000 -0.0000 -0.0000
vn -1.0000 -0.0000 -0.0000
vn -0.0000 -0.0000 -1.0000
vn -0.0000 -0.0000 1.0000
vt 0.057024 0.661694
vt 0.269450 0.661694
vt 0.269450 0.661694
vt 0.057024 0.661694
vt 0.057024 0.479685
vt 0.269450 0.479685
vt 0.269450 0.479685
vt 0.057024 0.479685
s 0
usemtl Material
f 38/38/28 37/37/28 40/40/28 39/39/28
f 42/42/29 43/43/29 44/44/29 41/41/29
f 39/39/30 40/40/30 44/44/30 43/43/30
f 37/37/31 38/38/31 42/42/31 41/41/31
f 40/40/32 37/37/32 41/41/32 44/44/32
f 38/38/33 39/39/33 43/43/33 42/42/33
o Plane.007
v -11.000000 0.000000 17.000000
v 11.000000 0.000000 17.000000
v -11.000000 0.000000 13.000000
v 11.000000 0.000000 13.000000
v -10.492275 1.000000 13.000000
v -10.492275 1.000000 17.000000
v 10.492275 1.000000 17.000000
v 10.492275 1.000000 13.000000
vn -0.0000 -1.0000 -0.0000
vn -0.0000 1.0000 -0.0000
vn 0.8917 0.4527 -0.0000
vn -0.8917 0.4527 -0.0000
vn -0.0000 -0.0000 -1.0000
vn -0.0000 -0.0000 1.0000
vt 0.573608 0.632345
vt 0.573608 0.632345
vt 0.537691 0.632345
vt 0.537691 0.632345
vt 0.537691 0.571824
vt 0.573608 0.571824
vt 0.573608 0.571824
vt 0.537691 0.571824
s 0
usemtl Material
f 45/45/34 47/47/34 48/48/34 46/46/34
f 50/50/35 51/51/35 52/52/35 49/49/35
f 46/46/36 48/48/36 52/52/36 51/51/36
f 47/47/37 45/45/37 50/50/37 49/49/37
f 48/48/38 47/47/38 49/49/38 52/52/38
f 45/45/39 46/46/39 51/51/39 50/50/39
o Cube
v -6.537673 6.729345 -9.400116
v -6.537673 7.950210 -8.594070
v -6.537673 8.760479 -12.476542
v -6.537673 9.981343 -11.670496
v -1.707496 6.729345 -9.400116
v -1.707496 7.950210 -8.594070
v -1.707496 8.760479 -12.476542
v -1.707496 9.981343 -11.670496
v -7.394685 6.979396 -8.451246
v -7.394685 9.731293 -12.619365
v -0.850484 9.731293 -12.619365
v -0.850484 6.979396 -8.451246
v -6.537673 7.744912 -10.938329
v -6.537673 8.965776 -10.132283
v -1.707496 7.744912 -10.938329
v -1.707496 8.965776 -10.132283
v -1.052720 8.355345 -10.535306
v -7.192449 8.355345 -10.535306
v -4.122584 8.760479 -12.476542
v -4.122584 9.981343 -11.670496
v -4.122584 6.729345 -9.400116
v -4.122584 7.950210 -8.594070
v -4.122584 7.038428 -8.540658
v -4.122584 9.672260 -12.529953
v -4.122584 9.157907 -10.005433
v -4.122584 7.744912 -10.938329
vn -0.7023 0.5754 0.4191
vn -0.0146 0.9533 -0.3017
vn 0.7023 0.6115 0.3645
vn 0.0146 0.0971 0.9952
vn -0.0000 -0.8345 -0.5510
vn -0.0475 0.7977 0.6012
vn 0.0146 -0.9533 0.3017
vn 0.7023 -0.5754 -0.4191
vn -0.0146 -0.0971 -0.9952
vn -0.7023 -0.6115 -0.3645
vn -0.7023 -0.5754 -0.4191
vn 0.7023 -0.6115 -0.3645
vn -0.0475 0.8663 0.4973
vn 0.7023 0.5754 0.4191
vn -0.7023 0.6115 0.3645
vn 0.0475 0.8663 0.4973
vn 0.0146 -0.0971 -0.9952
vn -0.0146 -0.9533 0.3017
vn 0.0475 0.7977 0.6012
vn -0.0146 0.0971 0.9952
vn 0.0146 0.9533 -0.3017
vt 0.791755 0.957981
vt 0.791755 0.713894
vt 0.730733 0.896959
vt 0.852776 0.957981
vt 0.913798 0.896959
vt 0.852776 0.713894
vt 0.730733 0.835938
vt 0.791755 0.774916
vt 0.913798 0.835938
vt 0.852776 0.774916
vt 0.791755 0.896959
vt 0.852776 0.896959
vt 0.791755 0.835938
vt 0.852776 0.835938
vt 0.822266 0.957981
vt 0.822266 0.713894
vt 0.822266 0.774916
vt 0.822266 0.835938
vt 0.822266 0.896959
vt 0.791755 0.744405
vt 0.730733 0.866448
vt 0.913798 0.866448
vt 0.852776 0.744405
vt 0.791755 0.866448
vt 0.852776 0.866448
vt 0.822266 0.866448
vt 0.822266 0.744405
vt 0.761244 0.835938
vt 0.791755 0.805427
vt 0.883287 0.835938
vt 0.852776 0.805427
vt 0.791755 0.927470
vt 0.761244 0.896959
vt 0.883287 0.896959
vt 0.852776 0.927470
vt 0.822266 0.927470
vt 0.822266 0.805427
vt 0.883287 0.866448
vt 0.761244 0.866448
s 0
usemtl Material
f 70/79/40 66/75/40 56/62/40 62/69/40
f 76/89/41 72/83/41 60/66/41 63/70/41
f 69/78/42 68/77/42 58/64/42 64/71/42
f 75/88/43 74/87/43 54/56/43 61/67/43
f 78/91/44 67/76/44 57/63/44 73/85/44
f 77/90/45 66/74/45 54/57/45 74/86/45
f 73/84/46 75/88/46 61/67/46 53/53/46
f 67/76/47 69/78/47 64/71/47 57/63/47
f 71/81/48 76/89/48 63/70/48 59/65/48
f 65/72/49 70/79/49 62/69/49 55/60/49
f 53/54/50 61/68/50 70/79/50 65/72/50
f 59/65/51 63/70/51 69/78/51 67/76/51
f 72/82/52 56/61/52 66/74/52 77/90/52
f 71/80/44 59/65/44 67/76/44 78/91/44
f 63/70/53 60/66/53 68/77/53 69/78/53
f 61/68/54 54/58/54 66/75/54 70/79/54
f 55/59/44 71/80/44 78/91/44 65/73/44
f 60/66/55 72/82/55 77/90/55 68/77/55
f 55/60/56 62/69/56 76/89/56 71/81/56
f 57/63/57 64/71/57 75/88/57 73/84/57
f 68/77/58 77/90/58 74/86/58 58/64/58
f 65/73/44 78/91/44 73/85/44 53/55/44
f 64/71/59 58/64/59 74/87/59 75/88/59
f 62/69/60 56/62/60 72/83/60 76/89/60
o Cube.002
v 1.356620 6.729345 -9.400116
v 1.356620 7.950210 -8.594070
v 1.356620 8.760479 -12.476542
v 1.356620 9.981343 -11.670496
v 6.186797 6.729345 -9.400116
v 6.186797 7.950210 -8.594070
v 6.186797 8.760479 -12.476542
v 6.186797 9.981343 -11.670496
v 0.499608 6.979396 -8.451246
v 0.499608 9.731293 -12.619365
v 7.043809 9.731293 -12.619365
v 7.043809 6.979396 -8.451246
v 1.356620 7.744912 -10.938329
v 1.356620 8.965776 -10.132283
v 6.186797 7.744912 -10.938329
v 6.186797 8.965776 -10.132283
v 6.841573 8.355345 -10.535306
v 0.701844 8.355345 -10.535306
v 3.771708 8.760479 -12.476542
v 3.771708 9.981343 -11.670496
v 3.771708 6.729345 -9.400116
v 3.771708 7.950210 -8.594070
v 3.771708 7.038428 -8.540658
v 3.771708 9.672260 -12.529953
v 3.771708 9.157907 -10.005433
v 3.771708 7.744912 -10.938329
vn -0.7023 0.5754 0.4191
vn -0.0146 0.9533 -0.3017
vn 0.7023 0.6115 0.3645
vn 0.0146 0.0971 0.9952
vn -0.0000 -0.8345 -0.5510
vn -0.0475 0.7977 0.6012
vn 0.0146 -0.9533 0.3017
vn 0.7023 -0.5754 -0.4191
vn -0.0146 -0.0971 -0.9952
vn -0.7023 -0.6115 -0.3645
vn -0.7023 -0.5754 -0.4191
vn 0.7023 -0.6115 -0.3645
vn -0.0475 0.8663 0.4973
vn 0.7023 0.5754 0.4191
vn -0.7023 0.6115 0.3645
vn 0.0475 0.8663 0.4973
vn 0.0146 -0.0971 -0.9952
vn -0.0146 -0.9533 0.3017
vn 0.0475 0.7977 0.6012
vn -0.0146 0.0971 0.9952
vn 0.0146 0.9533 -0.3017
vt 0.791755 0.957981
vt 0.791755 0.713894
vt 0.730733 0.896959
vt 0.852776 0.957981
vt 0.913798 0.896959
vt 0.852776 0.713894
vt 0.730733 0.835938
vt 0.791755 0.774916
vt 0.913798 0.835938
vt 0.852776 0.774916
vt 0.791755 0.896959
vt 0.852776 0.896959
vt 0.791755 0.835938
vt 0.852776 0.835938
vt 0.822266 0.957981
vt 0.822266 0.713894
vt 0.822266 0.774916
vt 0.822266 0.835938
vt 0.822266 0.896959
vt 0.791755 0.744405
vt 0.730733 0.866448
vt 0.913798 0.866448
vt 0.852776 0.744405
vt 0.791755 0.866448
vt 0.852776 0.866448
vt 0.822266 0.866448
vt 0.822266 0.744405
vt 0.761244 0.835938
vt 0.791755 0.805427
vt 0.883287 0.835938
vt 0.852776 0.805427
vt 0.791755 0.927470
vt 0.761244 0.896959
vt 0.883287 0.896959
vt 0.852776 0.927470
vt 0.822266 0.927470
vt 0.822266 0.805427
vt 0.883287 0.866448
vt 0.761244 0.866448
s 0
usemtl Material
f 96/118/61 92/114/61 82/101/61 88/108/61
f 102/128/62 98/122/62 86/105/62 89/109/62
f 95/117/63 94/116/63 84/103/63 90/110/63
f 101/127/64 100/126/64 80/95/64 87/106/64
f 104/130/65 93/115/65 83/102/65 99/124/65
f 103/129/66 92/113/66 80/96/66 100/125/66
f 99/123/67 101/127/67 87/106/67 79/92/67
f 93/115/68 95/117/68 90/110/68 83/102/68
f 97/120/69 102/128/69 89/109/69 85/104/69
f 91/111/70 96/118/70 88/108/70 81/99/70
f 79/93/71 87/107/71 96/118/71 91/111/71
f 85/104/72 89/109/72 95/117/72 93/115/72
f 98/121/73 82/100/73 92/113/73 103/129/73
f 97/119/65 85/104/65 93/115/65 104/130/65
f 89/109/74 86/105/74 94/116/74 95/117/74
f 87/107/75 80/97/75 92/114/75 96/118/75
f 81/98/65 97/119/65 104/130/65 91/112/65
f 86/105/76 98/121/76 103/129/76 94/116/76
f 81/99/77 88/108/77 102/128/77 97/120/77
f 83/102/78 90/110/78 101/127/78 99/123/78
f 94/116/79 103/129/79 100/125/79 84/103/79
f 91/112/65 104/130/65 99/124/65 79/94/65
f 90/110/80 84/103/80 100/126/80 101/127/80
f 88/108/81 82/101/81 98/122/81 102/128/81
o Cube.001
v -6.626247 6.771922 -13.163270
v -6.626247 8.009370 -12.006207
v -6.626247 9.687576 -16.281483
v -6.626247 10.925024 -15.124419
v 6.316741 6.771922 -13.163270
v 6.316741 8.009370 -12.006207
v 6.316741 9.687576 -16.281483
v 6.316741 10.925024 -15.124419
v -8.922705 6.873325 -12.031477
v -8.922705 10.823621 -16.256210
v 8.613199 10.823621 -16.256210
v 8.613199 6.873325 -12.031477
v -7.497256 8.049657 -14.890770
v -7.578920 9.639891 -13.403837
v 7.187749 8.049657 -14.890770
v 7.269414 9.639891 -13.403837
v 8.223570 8.848473 -14.143844
v -8.533075 8.848473 -14.143844
v -0.154753 9.687576 -16.281483
v -0.154753 10.925024 -15.124419
v -0.154753 6.771922 -13.163270
v -0.154753 8.009370 -12.006207
v -0.154753 6.958065 -12.122104
v -0.154753 10.738881 -16.165585
v -0.154753 9.875782 -13.183270
v -0.154753 8.015904 -14.922329
vn -0.4917 0.6976 0.5211
vn -0.0063 0.9904 -0.1378
vn 0.4917 0.5668 0.6611
vn 0.0063 -0.0710 0.9975
vn 0.0033 -0.8107 -0.5855
vn -0.0228 0.5887 0.8080
vn 0.0063 -0.9904 0.1378
vn 0.4860 -0.6959 -0.5286
vn -0.0063 0.0710 -0.9975
vn -0.4860 -0.5741 -0.6589
vn -0.4860 -0.6959 -0.5286
vn 0.4860 -0.5741 -0.6589
vn -0.0228 0.8457 0.5332
vn 0.0033 -0.6385 -0.7696
vn 0.4917 0.6976 0.5211
vn -0.4917 0.5668 0.6611
vn -0.0033 -0.6385 -0.7696
vn 0.0228 0.8457 0.5332
vn 0.0063 0.0710 -0.9975
vn -0.0063 -0.9904 0.1378
vn 0.0228 0.5887 0.8080
vn -0.0033 -0.8107 -0.5855
vn -0.0063 -0.0710 0.9975
vn 0.0063 0.9904 -0.1378
vt 0.813860 0.650809
vt 0.813860 0.349191
vt 0.738456 0.575404
vt 0.889265 0.650809
vt 0.964669 0.575404
vt 0.889265 0.349191
vt 0.738456 0.500000
vt 0.813860 0.424596
vt 0.964669 0.500000
vt 0.889265 0.424596
vt 0.813860 0.575404
vt 0.889265 0.575404
vt 0.813860 0.500000
vt 0.889265 0.500000
vt 0.851562 0.650809
vt 0.851562 0.349191
vt 0.851562 0.424596
vt 0.851562 0.500000
vt 0.851562 0.575404
vt 0.813860 0.386894
vt 0.738456 0.537702
vt 0.964669 0.537702
vt 0.889265 0.386894
vt 0.813860 0.537702
vt 0.889265 0.537702
vt 0.851562 0.537702
vt 0.851562 0.386894
vt 0.776158 0.500000
vt 0.813860 0.462298
vt 0.926967 0.500000
vt 0.889265 0.462298
vt 0.813860 0.613106
vt 0.776158 0.575404
vt 0.926967 0.575404
vt 0.889265 0.613106
vt 0.851562 0.613106
vt 0.851562 0.462298
vt 0.926967 0.537702
vt 0.776158 0.537702
s 0
usemtl Material
f 122/157/82 118/153/82 108/140/82 114/147/82
f 128/167/83 124/161/83 112/144/83 115/148/83
f 121/156/84 120/155/84 110/142/84 116/149/84
f 127/166/85 126/165/85 106/134/85 113/145/85
f 130/169/86 119/154/86 109/141/86 125/163/86
f 129/168/87 118/152/87 106/135/87 126/164/87
f 125/162/88 127/166/88 113/145/88 105/131/88
f 119/154/89 121/156/89 116/149/89 109/141/89
f 123/159/90 128/167/90 115/148/90 111/143/90
f 117/150/91 122/157/91 114/147/91 107/138/91
f 105/132/92 113/146/92 122/157/92 117/150/92
f 111/143/93 115/148/93 121/156/93 119/154/93
f 124/160/94 108/139/94 118/152/94 129/168/94
f 123/158/95 111/143/95 119/154/95 130/169/95
f 115/148/96 112/144/96 120/155/96 121/156/96
f 113/146/97 106/136/97 118/153/97 122/157/97
f 107/137/98 123/158/98 130/169/98 117/151/98
f 112/144/99 124/160/99 129/168/99 120/155/99
f 107/138/100 114/147/100 128/167/100 123/159/100
f 109/141/101 116/149/101 127/166/101 125/162/101
f 120/155/102 129/168/102 126/164/102 110/142/102
f 117/151/103 130/169/103 125/163/103 105/133/103
f 116/149/104 110/142/104 126/165/104 127/166/104
f 114/147/105 108/140/105 124/161/105 128/167/105
o Plane.006
v -10.999999 14.000004 -19.000004
v 11.000001 13.999996 -18.999996
v -11.000001 14.000004 -15.000004
v 10.999999 13.999996 -14.999996
v -10.492276 13.000004 -15.000004
v -10.492274 13.000004 -19.000004
v 10.492276 12.999996 -18.999996
v 10.492274 12.999996 -14.999996
vn -0.0000 1.0000 -0.0000
vn -0.0000 -1.0000 -0.0000
vn 0.8917 -0.4527 -0.0000
vn -0.8917 -0.4527 -0.0000
vn -0.0000 -0.0000 1.0000
vn -0.0000 -0.0000 -1.0000
vt 0.511051 0.632345
vt 0.511051 0.632345
vt 0.475134 0.632345
vt 0.475134 0.632345
vt 0.475134 0.571824
vt 0.511051 0.571824
vt 0.511051 0.571824
vt 0.475134 0.571824
s 0
usemtl Material
f 131/170/106 133/172/106 134/173/106 132/171/106
f 136/175/107 137/176/107 138/177/107 135/174/107
f 132/171/108 134/173/108 138/177/108 137/176/108
f 133/172/109 131/170/109 136/175/109 135/174/109
f 134/173/110 133/172/110 135/174/110 138/177/110
f 131/170/111 132/171/111 137/176/111 136/175/111
