#
#
#

mtllib cabinet.mtl


#
# Plane
#
g Plane


#
# Plane_wood
#
usemtl Plane_wood

v -79.334404 29.040068 -26.354237
v -78.334404 28.374491 18.314592
v 78.334404 28.374483 -27.354235
v 79.334404 28.374483 -26.354237
v 79.334404 28.374489 17.314590
v 78.334404 28.374491 18.314592
v 79.334404 29.040073 17.314590
v 79.334404 29.040068 -26.354237
v 78.334404 29.040068 -27.354235
v -78.334404 29.040068 -27.354235
v -78.334404 28.374483 -27.354235
v -79.334404 28.374483 -26.354237
v -79.334404 28.374489 17.314590
v -79.999992 28.374491 17.980179
v -79.000000 28.374491 18.980179
v -79.000000 -14.940682 18.980185
v -79.999992 -14.940682 17.980185
v -77.005470 -14.940682 18.980185
v -77.005470 28.374491 18.980179
v 79.000000 28.374483 -28.019823
v 80.000000 28.374483 -27.019821
v 80.000000 -14.940690 -27.019815
v 79.000000 -14.940690 -28.019817
v 28.673405 28.374495 18.980179
v 28.673405 -14.940677 18.980185
v 76.339890 -14.940677 18.980185
v 79.999992 28.374491 17.980179
v 79.000000 28.374491 18.980179
v 79.000000 -14.940682 18.980185
v 76.339890 28.374495 18.980179
v -79.000000 28.374483 -28.019823
v -80.000000 28.374483 -27.019821
v -80.000000 -14.940690 -27.019815
v 79.999992 -14.940682 17.980185
v 77.005470 -14.940682 18.980185
v 77.005470 28.374491 18.980179
v -79.000000 -14.940690 -28.019817
v 28.007820 5.257816 18.980183
v 28.007820 -14.940677 18.980185
v -76.339890 28.374495 18.980179
v -76.339890 -14.940677 18.980185
v -28.673405 -14.940677 18.980185
v -28.673405 28.374495 18.980179
v -28.007820 -14.940677 18.980185
v -28.007820 5.257816 18.980183
v 28.007820 18.053068 18.141916
v 28.007820 16.208887 18.141918
v 28.007820 16.208879 -25.020586
v 28.007820 18.053061 -25.020588
v 28.007820 28.374491 18.314590
v 28.007820 5.923391 -25.020586
v 28.007820 5.923398 18.314592
v 28.007820 28.374483 -25.020588
v -28.007820 18.053068 18.141916
v -28.007820 16.208887 18.141918
v -28.007820 16.208879 -25.020586
v -28.007820 18.053061 -25.020588
v -28.007820 28.374491 18.314590
v -28.007820 5.923391 -25.020586
v -28.007820 5.923398 18.314592
v -28.007820 28.374483 -25.020588
v 28.673405 28.374495 18.314592
v 76.339890 28.374495 18.314592
v -28.673405 -14.940677 18.314598
v -76.339890 -14.940677 18.314598
v 28.007820 -14.940677 18.314598
v -28.007820 -14.940677 18.314598
v 76.339890 -14.940677 18.314598
v 28.673405 -14.940677 18.314598
v 28.007820 5.257816 18.314596
v -28.007820 5.257816 18.314596
v -28.673405 28.374495 18.314592
v -76.339890 28.374495 18.314592
v -77.005470 -14.940682 18.314598
v -77.005470 28.374491 18.314592
v 77.005470 -14.940682 18.314598
v 77.005470 28.374491 18.314592
v 78.334404 29.040075 18.314592
v 79.999992 29.040075 17.980179
v 79.000000 29.040068 -28.019823
v 79.999992 29.040068 -27.019821
v 79.999992 31.027945 -27.019823
v 79.000000 31.027945 -28.019825
v 79.000000 31.027952 18.980177
v 79.999992 31.027952 17.980177
v 79.000000 29.040075 18.980179
v -79.999992 29.040075 17.980179
v -79.000000 29.040075 18.980179
v -79.000000 29.040068 -28.019823
v -79.999992 29.040068 -27.019821
v -79.999992 31.027945 -27.019823
v -79.000000 31.027945 -28.019825
v -79.000000 31.027952 18.980177
v -79.999992 31.027952 17.980177
v -79.334404 29.040073 17.314590
v -78.334404 29.040075 18.314592
v 50.749161 -28.972057 -24.155031
v 50.749161 -28.972052 15.115406
v 50.749161 -20.006811 -24.155031
v 54.349854 -28.972057 -24.155031
v 50.749161 -20.006805 15.115404
v 54.515732 -20.006811 -24.354990
v 54.515732 -20.006805 15.315363
v 54.515732 -17.594133 -24.354990
v 54.349854 -28.972052 15.115406
v 54.515732 -17.594128 15.315363
v 50.749161 -28.972052 10.774992
v 50.749161 -28.972057 -19.814619
v 54.349854 -20.006805 10.774990
v 54.349854 -20.006811 -19.814619
v 54.349854 -28.972052 10.774992
v 54.349854 -28.972057 -19.814619
v 50.749161 -20.006805 10.774990
v 50.749161 -20.006811 -19.814619
v 54.349854 -20.006805 15.115404
v 54.349854 -20.006811 -24.155031
v 79.000000 -17.594133 -28.019815
v 79.999992 -17.594133 -27.019814
v 79.999992 -17.594126 17.980186
v 79.000000 -17.594126 18.980186
v 79.000000 -15.606250 18.980185
v 79.999992 -15.606250 17.980185
v 78.334404 -15.606257 -27.354229
v 79.999992 -15.606257 -27.019815
v 79.000000 -15.606257 -28.019817
v -54.515732 -17.594128 15.315363
v -54.515732 -17.594133 -24.354990
v -54.515732 -20.006805 15.315363
v -54.515732 -20.006811 -24.354990
v -50.749161 -20.006805 15.115404
v -50.749161 -20.006811 -24.155031
v -50.749161 -28.972052 15.115406
v -50.749161 -28.972057 -24.155031
v -54.349854 -28.972052 15.115406
v -54.349854 -28.972057 -24.155031
v -50.749161 -28.972052 10.774992
v -50.749161 -28.972057 -19.814619
v -54.349854 -20.006805 10.774990
v -54.349854 -20.006811 -19.814619
v -54.349854 -28.972052 10.774992
v -54.349854 -28.972057 -19.814619
v -50.749161 -20.006805 10.774990
v -50.749161 -20.006811 -19.814619
v -54.349854 -20.006805 15.115404
v -54.349854 -20.006811 -24.155031
v -79.000000 -17.594133 -28.019815
v -79.999992 -17.594133 -27.019814
v -79.999992 -17.594126 17.980186
v -79.000000 -17.594126 18.980186
v -79.000000 -15.606250 18.980185
v -79.999992 -15.606250 17.980185
v -78.334404 -15.606250 18.314598
v -78.334404 -15.606257 -27.354229
v -79.999992 -15.606257 -27.019815
v -79.000000 -15.606257 -28.019817
v 79.334404 -14.940678 -26.354227
v 78.334404 -14.940678 -27.354229
v 79.334404 -14.940682 17.314598
v 79.334404 -15.606250 17.314598
v 78.334404 -15.606250 18.314598
v 79.334404 -15.606246 -26.354227
v -79.334404 -14.940678 -26.354227
v -78.334404 -14.940678 -27.354229
v -78.334404 -14.940682 18.314598
v -79.334404 -14.940682 17.314598
v -79.334404 -15.606250 17.314598
v -79.334404 -15.606246 -26.354227
v 78.334404 -14.940670 18.314598
vn 0.000000 0.000000 1.000000
vn 0.707107 -0.000000 -0.707107
vn 0.707107 0.000000 0.707107
vn -1.000000 0.000000 -0.000000
vn -0.707107 -0.000000 -0.707107
vn -0.707107 0.000000 0.707107
vn 0.000000 -0.000000 -1.000000
vn 1.000000 0.000000 0.000000
vn 0.000000 1.000000 -0.000000
vn 0.707109 -0.000000 -0.707105
vn 0.707108 0.000000 0.707105
vn 0.000000 -1.000000 0.000000
vn -0.707109 -0.000000 -0.707105
vn -1.000000 0.000000 0.000000
vn 1.000000 0.000000 0.000000
vn -0.707108 0.000000 0.707105
vn 0.000000 0.000000 1.000000
vn 0.000000 -1.000000 0.000000
vn 0.000000 1.000000 -0.000000
vn -0.000000 0.000000 1.000000
vn -0.000000 -1.000000 0.000000
vn 0.707109 -0.000000 -0.707105
vn -0.707109 -0.000000 -0.707105
vn 0.000000 0.000000 1.000000
vn 0.000000 -0.000000 -1.000000
vn 0.707108 -0.000000 -0.707105
vn 0.707108 0.000000 0.707106
vn -0.707108 -0.000000 -0.707105
vn -0.707108 0.000000 0.707106
vn 0.707107 0.000000 0.707107
vn 0.707107 -0.000000 -0.707106
vn -0.707107 -0.000000 -0.707106
vn -0.707108 0.000000 0.707106
vn -0.000010 -1.000000 0.000000
vn 0.000003 -1.000000 -0.000011
vn 0.000010 -1.000000 0.000000
vn 0.000010 -1.000000 0.000009
vn -0.000008 -1.000000 -0.000001
vn 0.000000 -1.000000 0.000018
vn -0.000010 -1.000000 0.000009
vt 0.000000 0.000000
vt 1.000000 0.074566
vt 0.985713 0.000000
vt 0.985713 0.000000
vt 1.000000 0.666667
vt 1.000000 1.000000
vt 1.000000 0.333333
vt 1.000000 0.000000
f 78/1/1 96/1/1 2/1/1 6/1/1
f 3/1/2 9/1/2 8/1/2 4/1/2
f 5/1/3 7/1/3 78/1/3 6/1/3
f 95/1/4 1/1/4 12/1/4 13/1/4
f 1/1/5 10/1/5 11/1/5 12/1/5
f 13/1/6 2/1/6 96/1/6 95/1/6
f 11/1/7 10/1/7 9/1/7 3/1/7
f 4/1/8 8/1/8 7/1/8 5/1/8
f 5/1/9 6/1/9 28/2/9 27/2/9
f 37/3/7 31/3/7 20/3/7 23/3/7
f 61/3/1 59/3/1 51/3/1 53/3/1
f 59/3/9 60/3/9 52/3/9 51/3/9
f 52/3/4 50/3/4 53/3/4 51/3/4
f 23/2/10 20/2/10 21/2/10 22/2/10
f 34/2/11 27/2/11 28/2/11 29/2/11
f 55/4/12 56/4/12 48/4/12 47/4/12
f 54/4/1 55/4/1 47/4/1 46/4/1
f 61/3/8 58/3/8 60/3/8 59/3/8
f 29/2/1 28/2/1 36/2/1 35/2/1
f 49/4/9 57/4/9 54/4/9 46/4/9
f 38/3/1 45/3/1 44/3/1 39/3/1
f 37/2/13 33/2/13 32/2/13 31/2/13
f 33/2/14 17/2/14 14/2/14 32/2/14
f 16/2/1 18/2/1 19/2/1 15/2/1
f 22/2/15 21/2/15 27/2/15 34/2/15
f 17/2/16 16/2/16 15/2/16 14/2/16
f 26/3/1 30/3/1 24/3/1 25/3/1
f 41/3/1 42/3/1 43/3/1 40/3/1
f 60/3/17 58/3/17 75/2/17 74/2/17
f 19/2/8 18/2/8 74/2/8 75/2/8
f 35/2/4 36/2/4 77/2/4 76/2/4
f 25/3/18 69/3/18 68/3/18 26/3/18
f 40/3/4 73/3/4 65/3/4 41/3/4
f 38/3/19 70/3/19 71/3/19 45/3/19
f 26/3/8 68/3/8 63/3/8 30/3/8
f 41/3/18 65/3/18 64/3/18 42/3/18
f 39/3/8 66/3/8 70/3/8 38/3/8
f 42/3/8 64/3/8 72/3/8 43/3/8
f 43/3/19 72/3/19 73/3/19 40/3/19
f 44/3/18 67/3/18 66/3/18 39/3/18
f 30/3/19 63/3/19 62/3/19 24/3/19
f 24/3/4 62/3/4 69/3/4 25/3/4
f 45/3/4 71/3/4 67/3/4 44/3/4
f 50/3/20 52/3/20 76/2/20 77/2/20
f 52/3/1 60/3/1 74/2/1 76/2/1
f 75/2/9 2/1/9 15/2/9 19/2/9
f 58/3/12 61/3/12 53/3/12 50/3/12
f 16/2/12 164/1/12 74/2/12 18/2/12
f 81/3/21 79/3/21 86/3/21 88/3/21 87/3/21 90/3/21 89/3/21 80/3/21
f 89/3/7 92/3/7 83/3/7 80/3/7
f 85/3/8 79/3/8 81/3/8 82/3/8
f 84/3/1 93/3/1 88/3/1 86/3/1
f 80/3/22 83/3/22 82/3/22 81/3/22
f 79/3/11 85/3/11 84/3/11 86/3/11
f 94/3/4 91/3/4 90/3/4 87/3/4
f 89/3/23 90/3/23 91/3/23 92/3/23
f 87/3/16 88/3/16 93/3/16 94/3/16
f 83/3/19 92/3/19 91/3/19 94/3/19 93/3/19 84/3/19 85/3/19 82/3/19
f 28/2/9 6/1/9 77/2/9 36/2/9
f 4/1/9 5/1/9 27/2/9 21/2/9
f 3/1/9 4/1/9 21/2/9 20/2/9
f 11/1/19 3/1/19 20/3/19 31/3/19
f 12/1/9 11/1/9 31/2/9 32/2/9
f 13/1/9 12/1/9 32/2/9 14/2/9
f 15/2/9 2/1/9 13/1/9 14/2/9
f 127/1/7 104/1/7 102/1/7 129/1/7
f 112/5/8 100/6/8 116/6/8 110/5/8
f 107/7/12 111/7/12 105/8/12 98/8/12
f 98/8/24 105/8/24 115/8/24 101/8/24
f 103/1/8 102/1/8 104/1/8 106/1/8
f 100/6/25 97/6/25 99/6/25 116/6/25
f 97/6/4 108/5/4 114/1/4 99/6/4
f 97/6/12 100/6/12 112/5/12 108/5/12
f 105/8/8 111/7/8 109/7/8 115/8/8
f 114/1/24 108/5/24 112/5/24 110/5/24
f 101/8/4 113/1/4 107/7/4 98/8/4
f 113/1/25 109/7/25 111/7/25 107/7/25
f 120/3/18 149/3/18 148/3/18 147/3/18 146/3/18 117/3/18 118/3/18 119/3/18
f 154/3/9 151/3/9 150/3/9 121/3/9 122/3/9 124/3/9 125/3/9 155/3/9
f 121/3/1 150/3/1 149/3/1 120/3/1
f 118/3/8 124/3/8 122/3/8 119/3/8
f 103/1/12 128/1/12 129/1/12 102/1/12
f 128/1/1 103/1/1 106/1/1 126/1/1
f 117/3/7 146/3/7 155/3/7 125/3/7
f 124/3/26 118/3/26 117/3/26 125/3/26
f 121/3/27 120/3/27 119/3/27 122/3/27
f 147/3/4 148/3/4 151/3/4 154/3/4
f 143/1/24 139/5/24 141/5/24 137/5/24
f 142/1/25 136/7/25 140/7/25 138/7/25
f 130/8/8 132/8/8 136/7/8 142/1/8
f 136/7/12 132/8/12 134/8/12 140/7/12
f 133/6/12 137/5/12 141/5/12 135/6/12
f 133/6/8 131/6/8 143/1/8 137/5/8
f 134/8/4 144/8/4 138/7/4 140/7/4
f 135/6/25 145/6/25 131/6/25 133/6/25
f 141/5/4 139/5/4 145/6/4 135/6/4
f 132/8/24 130/8/24 144/8/24 134/8/24
f 128/1/4 126/1/4 127/1/4 129/1/4
f 154/3/28 155/3/28 146/3/28 147/3/28
f 150/3/29 151/3/29 148/3/29 149/3/29
f 168/1/30 160/1/30 159/1/30 158/1/30
f 158/1/8 159/1/8 161/1/8 156/1/8
f 156/1/31 161/1/31 123/1/31 157/1/31
f 123/1/7 153/1/7 163/1/7 157/1/7
f 163/1/32 153/1/32 167/1/32 162/1/32
f 166/1/4 165/1/4 162/1/4 167/1/4
f 152/1/33 164/1/33 165/1/33 166/1/33
f 152/1/1 160/1/1 168/1/1 164/1/1
f 22/2/34 34/2/34 158/1/34 156/1/34
f 16/2/12 17/2/12 165/1/12 164/1/12
f 29/2/35 35/2/35 76/2/35 168/1/35
f 17/2/36 33/2/36 162/1/36 165/1/36
f 33/2/37 37/3/37 163/1/37 162/1/37
f 34/2/38 29/2/38 168/1/38 158/1/38
f 37/3/39 23/2/39 157/1/39 163/1/39
f 23/2/40 22/2/40 156/1/40 157/1/40
