#
#
#

mtllib doorFrame.mtl


#
# Walls_Wall_01_001
#
g Walls_Wall_01_001


#
# Walls_Wall_01_001_M_Walls.006
#
usemtl Walls_Wall_01_001_M_Walls.006

v 32.512428 91.021431 18.160223
v 0.000000 91.021431 18.160223
v 0.000000 82.349960 18.160225
v 32.512428 82.349960 18.160225
v 0.000000 82.556976 23.325291
v 32.512428 82.556976 23.325291
v 32.512428 74.203270 18.013857
v 0.000000 74.203270 18.013857
v 0.000000 70.699921 14.872766
v 32.512428 70.699921 14.872766
v 32.512428 79.491028 21.550055
v 0.000000 79.491028 21.550055
v 0.000000 74.699921 21.499979
v 32.512428 74.699921 21.499979
v 32.512428 93.300034 14.872759
v 0.000000 93.300034 14.531844
v 32.512428 13.924056 19.999998
v 0.000000 13.924056 19.999998
v 0.000000 2.139528 20.000002
v 32.512428 2.139528 20.000002
v 32.512428 1.139529 22.500002
v 0.000000 1.139529 22.500002
v 0.000000 -0.999993 22.500002
v 32.512428 -0.999993 22.500002
v 32.512428 13.924056 14.872786
v 0.000000 13.924056 14.872786
v 0.000000 394.200165 21.701273
v 200.000000 390.265747 21.135021
v 200.000000 394.200165 21.701273
v 0.000000 390.265747 21.135021
v 200.000000 390.270508 18.701851
v 0.000000 390.270508 18.701851
v 0.000000 397.074860 24.916769
v 200.000000 397.074860 24.916769
v 200.000000 385.031555 14.531749
v 0.000000 385.031555 14.531749
v 0.000000 400.000000 24.916769
v 200.000000 400.000000 24.916769
v 167.487579 91.021431 18.160223
v 200.000000 82.349960 18.160225
v 200.000000 91.021431 18.160223
v 167.487579 82.349960 18.160225
v 200.000000 82.556976 23.325291
v 167.487579 82.556976 23.325291
v 167.487579 74.203270 18.013857
v 200.000000 70.699921 14.872766
v 200.000000 74.203270 18.013857
v 167.487579 70.699921 14.872766
v 167.487579 79.491028 21.550055
v 200.000000 74.699921 21.499979
v 200.000000 79.491028 21.550055
v 167.487579 74.699921 21.499979
v 167.487579 93.300034 14.872759
v 200.000000 93.300034 14.531844
v 167.487579 13.924056 19.999998
v 200.000000 2.139528 20.000002
v 200.000000 13.924056 19.999998
v 167.487579 2.139528 20.000002
v 167.487579 1.139529 22.500002
v 200.000000 -0.999993 22.500002
v 200.000000 1.139529 22.500002
v 167.487579 -0.999993 22.500002
v 167.487579 13.924056 14.872786
v 200.000000 13.924056 14.872786
v 155.000015 240.000015 -0.000078
v 155.000015 -0.999994 16.352943
v 155.000015 240.000015 16.352863
v 155.000015 -0.999999 0.000000
v 44.999996 240.000015 16.352863
v 44.999981 240.000015 -0.000078
v 44.999996 -0.999999 0.000000
v 44.999996 -0.999994 16.352943
v 159.778336 -0.999994 15.157432
v 159.778336 244.761703 15.157351
v 162.294479 -0.999993 17.721439
v 162.294479 247.497559 17.721357
v 165.751648 -0.999994 16.126657
v 165.751648 251.008377 16.126575
v 167.487579 252.690659 14.872707
v 167.487579 -0.999994 14.872789
v 32.512428 252.690659 14.872707
v 40.221668 -0.999994 15.157432
v 40.221661 244.761703 15.157351
v 37.705517 -0.999993 17.721439
v 37.705524 247.497559 17.721357
v 34.248352 -0.999994 16.126657
v 34.248352 251.008377 16.126575
v 32.512428 -0.999994 14.872789
vn 0.000000 0.000000 1.000000
vn -0.000000 0.999224 -0.039377
vn 0.000000 0.999224 -0.039377
vn -0.000000 0.999224 -0.039377
vn 0.000000 0.999224 -0.039377
vn -0.000000 0.999224 -0.039377
vn -0.000000 0.999224 -0.039377
vn 0.000000 -0.666778 0.745257
vn 0.000000 -0.666778 0.745257
vn -0.000000 -0.666778 0.745257
vn 0.000000 -0.666849 0.745193
vn 0.000000 -0.666849 0.745193
vn 0.000000 -0.666849 0.745193
vn -0.000000 -0.007911 0.999969
vn 0.000000 -0.007911 0.999969
vn 0.000000 -0.007911 0.999969
vn -0.000000 -0.007910 0.999969
vn -0.000000 -0.007910 0.999969
vn 0.000000 -0.007910 0.999969
vn -0.000003 0.834474 0.551047
vn -0.000004 0.834474 0.551047
vn -0.000003 0.834474 0.551047
vn -0.000001 0.834453 0.551079
vn 0.000002 0.834453 0.551079
vn 0.000000 0.834453 0.551079
vn 0.000000 -0.502864 0.864365
vn 0.000000 -0.502864 0.864365
vn 0.000000 -0.502864 0.864365
vn -0.000000 -0.502864 0.864365
vn -0.000000 -0.502864 0.864365
vn -0.000000 -0.502864 0.864365
vn 0.000000 -0.989956 0.141373
vn 0.000000 -0.989956 0.141373
vn -0.000000 -0.989956 0.141373
vn -0.000000 -0.989956 0.141373
vn 0.000000 -0.989956 0.141373
vn 0.000000 -0.989956 0.141373
vn 0.000000 0.000001 1.000000
vn 0.000000 1.000000 -0.000000
vn 0.000000 1.000000 -0.000000
vn 0.000000 0.929010 0.370055
vn 0.000000 0.929010 0.370055
vn 0.000000 0.929010 0.370055
vn 0.000000 0.929028 0.370010
vn 0.000000 0.929028 0.370010
vn 0.000000 0.929028 0.370010
vn 0.000000 0.000000 1.000000
vn 0.000000 -0.141411 0.989951
vn 0.000000 -0.141411 0.989951
vn -0.000000 -0.141411 0.989951
vn -0.000000 -0.141411 0.989951
vn 0.000000 -1.000000 -0.000039
vn 0.000000 -1.000000 -0.000039
vn -0.000000 -1.000000 -0.000039
vn -0.000000 -1.000000 -0.000039
vn 0.000000 -0.745510 0.666495
vn 0.000000 -0.745509 0.666496
vn -0.000000 -0.745190 0.666852
vn 0.000000 -0.623713 0.781654
vn -0.000000 -0.623713 0.781654
vn 0.000000 -0.623713 0.781654
vn 0.000000 -0.623713 0.781654
vn 0.000000 0.999224 -0.039377
vn -0.000000 0.999224 -0.039377
vn 0.000000 0.999224 -0.039377
vn 0.000000 0.999224 -0.039377
vn 0.000000 -0.666849 0.745193
vn 0.000000 -0.666849 0.745193
vn -0.000000 -0.666742 0.745289
vn -0.000000 -0.666742 0.745289
vn 0.000000 -0.007910 0.999969
vn 0.000000 -0.007912 0.999969
vn -0.000000 -0.007864 0.999969
vn -0.000000 -0.007862 0.999969
vn -0.000000 0.834457 0.551073
vn -0.000000 0.834463 0.551063
vn 0.000004 0.834474 0.551047
vn -0.000000 0.834453 0.551080
vn 0.000000 -0.502906 0.864341
vn -0.000000 -0.502864 0.864366
vn 0.000000 -0.502905 0.864342
vn 0.000000 -0.502865 0.864365
vn 0.000000 -0.989956 0.141373
vn 0.000000 -0.990004 0.141041
vn -0.000000 -0.989956 0.141373
vn 0.000000 -0.990004 0.141041
vn 0.000000 0.000000 1.000000
vn 0.000000 0.000000 1.000000
vn 0.000000 0.000000 1.000000
vn 0.000000 0.929028 0.370010
vn -0.000000 0.929010 0.370055
vn -0.000000 0.929028 0.370010
vn 0.000000 0.000000 1.000000
vn 0.000000 0.000000 1.000000
vn 0.000000 0.000000 1.000000
vn -1.000000 0.000000 -0.000000
vn 0.000000 -1.000000 0.000000
vn 1.000000 0.000000 -0.000000
vn 1.000000 0.000000 -0.000001
vn 1.000000 0.000000 -0.000001
vn 1.000000 -0.000000 -0.000000
vn 0.244295 0.000000 0.969701
vn 0.244296 0.000000 0.969701
vn -0.268458 0.000000 0.963291
vn -0.511871 0.000000 0.859062
vn -0.180878 0.000000 0.983505
vn 0.110460 0.000000 0.993881
vn 0.502871 0.000000 0.864361
vn 0.541885 0.000000 0.840452
vn 0.583476 0.000000 0.812131
vn 0.583472 0.000000 0.812133
vn 0.583470 0.000000 0.812135
vn 0.583514 0.000000 0.812103
vn 0.583471 0.000000 0.812134
vn -0.007897 0.000000 0.999969
vn -0.007897 -0.000000 0.999969
vn -0.007897 0.000000 0.999969
vn -0.000014 0.000019 1.000000
vn -0.007897 0.000000 0.999969
vn -0.007847 0.000018 0.999969
vn 0.007882 -0.000003 0.999969
vn 0.000000 -0.000012 1.000000
vn 0.007897 0.000000 0.999969
vn 0.007849 0.000000 0.999969
vn -0.000013 0.000001 1.000000
vn 0.007897 0.000000 0.999969
vn -0.244294 0.000000 0.969701
vn 0.268460 -0.000001 0.963291
vn -0.244340 0.000000 0.969690
vn 0.511871 0.000000 0.859062
vn 0.180822 0.000000 0.983516
vn -0.110460 0.000000 0.993881
vn -0.502915 0.000000 0.864336
vn -0.542010 0.000000 0.840372
vn -0.583473 0.000000 0.812133
vn -0.583474 0.000000 0.812132
vn -0.583470 0.000000 0.812135
vn -0.583472 0.000000 0.812133
vn -0.583473 0.000000 0.812132
vn 1.000000 -0.000000 -0.000001
vn 1.000000 -0.000000 -0.000000
vn 1.000000 0.000000 0.000000
vn 1.000000 -0.000000 -0.000001
vn 1.000000 0.000000 0.000000
vn 1.000000 0.000000 0.000000
vn 1.000000 0.000000 0.000000
vn -0.000000 -0.481599 0.876392
vn -0.000000 0.244256 0.969711
vn 0.000000 0.244069 0.969758
vn 0.000000 -0.481583 0.876400
vn 0.000000 0.102654 0.994717
vn -0.000000 0.102668 0.994716
vn -0.000000 0.551080 0.834452
vn 0.000000 0.551092 0.834445
vn 0.000000 0.597605 0.801791
vn 0.000000 0.597604 0.801791
vn 1.000000 0.000000 0.000002
vn 1.000000 0.000000 0.000000
vn 1.000000 0.000000 0.000000
vn 1.000000 0.000000 0.000002
vn 1.000000 -0.000000 -0.000001
vn 1.000000 -0.000000 -0.000001
vn -1.000000 -0.000000 -0.000001
vn -1.000000 0.000000 0.000002
vn -1.000000 -0.000000 -0.000005
vn -1.000000 -0.000000 -0.000001
vn -1.000000 0.000000 -0.000000
vn -1.000000 0.000000 0.000002
vn -1.000000 0.000000 0.000005
vn -1.000000 0.000000 0.000009
vt 0.830566 0.266113
vt 0.830566 0.734375
vt 0.768066 0.734375
vt 0.768066 0.266113
vt 0.730957 0.734375
vt 0.730957 0.266113
vt 0.645508 0.266113
vt 0.645508 0.734375
vt 0.611816 0.734375
vt 0.611816 0.266113
vt 0.705566 0.266113
vt 0.705566 0.734375
vt 0.670898 0.734375
vt 0.670898 0.266113
vt 0.859375 0.266113
vt 0.861816 0.734375
vt 0.816895 0.726807
vt 0.816895 0.273438
vt 0.899414 0.273438
vt 0.899414 0.726807
vt 0.917969 0.726807
vt 0.917969 0.273438
vt 0.933105 0.273438
vt 0.933105 0.726807
vt 0.781250 0.726807
vt 0.781250 0.273438
vt 0.498779 0.289551
vt 0.998535 0.289551
vt 0.498779 0.861694
vt 0.998535 0.861694
vt 0.756836 0.998707
vt 0.747070 -0.000977
vt 0.756836 -0.000977
vt 0.747070 0.998707
vt 0.741211 -0.000977
vt 0.741211 0.998707
vt 0.767578 0.998707
vt 0.767578 -0.000977
vt 0.724121 -0.000977
vt 0.724121 0.998707
vt 0.774902 0.998707
vt 0.774902 -0.000977
vt 0.643555 0.250488
vt 0.709961 0.750000
vt 0.643555 0.750000
vt 0.709961 0.250488
vt 0.750000 0.750000
vt 0.750000 0.250488
vt 0.840820 0.250488
vt 0.877441 0.750000
vt 0.840820 0.750000
vt 0.877441 0.250488
vt 0.777344 0.250488
vt 0.813965 0.750000
vt 0.777344 0.750000
vt 0.813965 0.250488
vt 0.612793 0.250488
vt 0.610352 0.750000
vt 0.498047 0.466309
vt 0.999512 0.534180
vt 0.498047 0.534180
vt 0.999512 0.466309
vt 0.848633 0.000488
vt 0.922852 0.999973
vt 0.848633 0.999973
vt 0.922852 0.000488
vt 0.974609 0.528564
vt 0.499756 0.528564
vt 0.499756 0.509277
vt 0.983887 0.509277
vt 0.499756 0.495117
vt 0.989258 0.495117
vt 0.499756 0.479980
vt 0.996094 0.479980
vt 0.685547 0.471680
vt 0.999512 0.471680
vt 0.640625 0.471680
vt 0.528809 0.471680
vt 0.499756 0.471680
vt 0.498291 0.837402
vt 0.771973 0.837402
vt 0.498291 0.999915
vt 0.999512 0.999895
vt 0.771973 0.163086
vt 0.999512 0.000488
vt 0.498291 0.000488
vt 0.498291 0.163086
vt 0.524414 0.528564
vt 0.999512 0.509277
vt 0.999512 0.528564
vt 0.515137 0.509277
vt 0.999512 0.495117
vt 0.509766 0.495117
vt 0.999512 0.479980
vt 0.502930 0.479980
vt 0.499512 0.471680
vt 0.813477 0.471680
vt 0.858398 0.471680
vt 0.970215 0.471680
vt 0.834961 0.427734
vt 0.877930 0.625000
vt 0.834961 0.625000
vt 0.877930 0.375488
vt 0.813965 0.375488
vt 0.813965 0.411133
vt 0.834961 0.620850
vt 0.876953 0.620850
vt 0.876953 0.376465
vt 0.814453 0.376465
vt 0.814453 0.411621
vt 0.528320 0.631104
vt 0.953613 0.667480
vt 0.545898 0.667480
vt 0.971191 0.631104
vt 0.980469 0.603271
vt 0.519043 0.603271
vt 0.506348 0.574707
vt 0.993164 0.574707
vt 1.000000 0.559326
vt 0.500000 0.559326
vt 0.843750 0.414062
vt 0.824219 0.472656
vt 0.824219 0.419434
vt 0.842773 0.503906
vt 0.813965 0.506348
vt 0.860840 0.375488
vt 0.860840 0.625000
vt 0.842773 0.599854
vt 0.824219 0.527832
vt 0.843750 0.586426
vt 0.824219 0.580811
vt 0.842773 0.496582
vt 0.813965 0.494141
vt 0.842773 0.400391
f 1/1/1 2/2/1 3/3/1
f 1/1/1 3/3/1 4/4/1
f 4/4/2 3/3/3 5/5/4
f 4/4/5 5/5/6 6/6/7
f 7/7/8 8/8/9 9/9/10
f 7/7/11 9/9/12 10/10/13
f 11/11/14 12/12/15 13/13/16
f 11/11/17 13/13/18 14/14/19
f 15/15/20 16/16/21 2/2/22
f 15/15/23 2/2/24 1/1/25
f 6/6/26 5/5/27 12/12/28
f 6/6/29 12/12/30 11/11/31
f 14/14/32 13/13/33 8/8/34
f 14/14/35 8/8/36 7/7/37
f 17/17/1 18/18/1 19/19/1
f 17/17/38 19/19/38 20/20/38
f 21/21/1 22/22/1 23/23/1
f 21/21/1 23/23/1 24/24/1
f 25/25/39 26/26/39 18/18/39
f 25/25/40 18/18/40 17/17/40
f 20/20/41 19/19/42 22/22/43
f 20/20/44 22/22/45 21/21/46
f 9/27/47 26/28/47 10/29/47
f 10/29/47 26/28/47 25/30/47
f 27/31/48 28/32/49 29/33/50
f 28/32/49 27/31/48 30/34/51
f 30/34/52 31/35/53 28/32/54
f 31/35/53 30/34/52 32/36/55
f 33/37/56 29/33/57 34/38/57
f 29/33/57 33/37/56 27/31/58
f 32/36/59 35/39/60 31/35/61
f 35/39/60 32/36/59 36/40/62
f 37/41/1 34/38/1 38/42/1
f 34/38/1 37/41/1 33/37/1
f 39/43/1 40/44/1 41/45/1
f 40/44/1 39/43/1 42/46/1
f 42/46/63 43/47/64 40/44/65
f 43/47/64 42/46/63 44/48/66
f 45/49/67 46/50/68 47/51/69
f 46/50/68 45/49/67 48/52/70
f 49/53/71 50/54/72 51/55/73
f 50/54/72 49/53/71 52/56/74
f 53/57/75 41/45/76 54/58/77
f 41/45/76 53/57/75 39/43/78
f 44/48/79 51/55/80 43/47/81
f 51/55/80 44/48/79 49/53/82
f 52/56/83 47/51/84 50/54/85
f 47/51/84 52/56/83 45/49/86
f 55/18/87 56/20/88 57/17/1
f 56/20/88 55/18/87 58/19/89
f 59/22/1 60/24/1 61/21/1
f 60/24/1 59/22/1 62/23/1
f 63/26/40 57/17/40 64/25/39
f 57/17/40 63/26/40 55/18/40
f 58/19/90 61/21/43 56/20/91
f 61/21/43 58/19/90 59/22/92
f 48/30/47 64/27/93 46/28/94
f 64/27/93 48/30/47 63/29/95
f 65/59/96 66/60/96 67/61/96
f 66/60/96 65/59/96 68/62/96
f 69/63/97 65/64/97 67/65/97
f 65/64/97 69/63/97 70/66/97
f 71/60/98 70/61/99 69/59/100
f 69/59/100 72/62/101 71/60/98
f 67/67/102 66/68/103 73/69/104
f 73/69/104 74/70/105 67/67/102
f 74/70/105 73/69/104 75/71/106
f 75/71/106 76/72/107 74/70/105
f 76/72/107 75/71/106 77/73/108
f 77/73/108 78/74/109 76/72/107
f 53/75/110 79/76/111 78/74/109
f 77/73/108 53/75/110 78/74/109
f 77/73/108 48/77/112 53/75/110
f 48/77/112 77/73/108 63/78/113
f 63/78/113 77/73/108 80/79/114
f 15/80/115 81/81/116 16/82/117
f 36/83/118 16/82/119 81/81/120
f 79/84/121 36/83/118 81/81/120
f 36/83/118 79/84/121 35/85/122
f 79/84/123 54/86/124 35/85/125
f 54/86/124 79/84/123 53/87/126
f 69/88/127 82/89/128 72/90/129
f 82/89/128 69/88/127 83/91/130
f 83/91/130 84/92/131 82/89/128
f 84/92/131 83/91/130 85/93/132
f 85/93/132 86/94/133 84/92/131
f 86/94/133 85/93/132 87/95/134
f 81/96/135 15/97/136 87/95/134
f 15/97/136 86/94/133 87/95/134
f 10/98/137 86/94/133 15/97/136
f 86/94/133 10/98/137 25/99/138
f 25/99/138 88/76/139 86/94/133
f 20/100/140 25/101/141 17/102/142
f 25/101/141 20/100/140 88/103/143
f 20/100/144 24/104/145 88/103/146
f 24/104/145 20/100/144 21/105/142
f 58/100/96 55/106/96 63/107/96
f 63/107/96 80/108/96 58/100/96
f 62/109/96 58/100/96 80/108/96
f 58/100/96 62/109/96 59/110/96
f 74/111/147 69/112/148 67/113/149
f 69/112/148 74/111/147 83/114/150
f 74/111/147 85/115/151 83/114/150
f 76/116/152 85/115/151 74/111/147
f 78/117/153 85/115/151 76/116/152
f 85/115/151 78/117/153 87/118/154
f 78/117/153 81/119/155 87/118/154
f 79/120/156 81/119/155 78/117/153
f 7/121/157 11/122/158 14/123/142
f 11/122/158 7/121/157 4/124/159
f 6/125/158 11/122/158 4/124/159
f 10/126/160 4/124/159 7/121/157
f 15/127/161 4/124/159 10/126/160
f 4/124/159 15/127/161 1/128/162
f 49/129/163 45/130/164 52/131/165
f 45/130/164 49/129/163 42/132/166
f 44/133/167 42/132/166 49/129/163
f 42/132/166 48/127/168 45/130/164
f 53/126/169 48/127/168 42/132/166
f 53/126/169 42/132/166 39/134/170
