# Blender 3.5.0
# www.blender.org
mtllib Out_Chairs.mtl
o House.015
v -1.494071 0.424601 0.110334
v -1.679204 0.424305 0.215246
v -1.213409 0.225887 0.603783
v -1.292189 0.224598 0.649154
v -1.397922 0.224428 0.709368
v -1.352730 0.183146 0.358627
v -1.421677 0.173344 0.394918
v -1.483718 0.174746 0.430570
v -1.537700 0.183146 0.463893
v -1.435379 0.294513 0.213399
v -1.489740 0.288146 0.239609
v -1.549512 0.282961 0.277362
v -1.620349 0.294513 0.318665
v -1.279518 0.185810 0.487272
v -1.362708 0.173770 0.527457
v -1.460182 0.187138 0.600201
v -1.471896 0.370778 0.149340
v -1.551264 0.346654 0.209436
v -1.657334 0.370714 0.253656
v -1.368658 0.165142 0.455884
v -1.314657 0.173725 0.425527
v -1.431458 0.163390 0.490153
v -1.499627 0.173725 0.530793
v -1.337919 0.193097 0.583340
v -1.451234 0.221937 0.311547
v -1.395129 0.229592 0.284125
v -1.512601 0.219351 0.347466
v -1.580099 0.229592 0.389391
v -1.916553 0.381624 -0.226796
v -2.127720 0.381299 -0.200537
v -1.843964 0.227297 0.349974
v -1.934092 0.226046 0.361909
v -2.054803 0.225880 0.377179
v -1.878554 0.162929 0.074295
v -1.956039 0.152959 0.082255
v -2.027004 0.154379 0.091395
v -2.089707 0.162929 0.100920
v -1.900471 0.261073 -0.099521
v -1.960647 0.254410 -0.095568
v -2.030285 0.249489 -0.083118
v -2.111625 0.261073 -0.072895
v -1.860116 0.177004 0.220509
v -1.952229 0.164519 0.226806
v -2.070234 0.179006 0.255734
v -1.910457 0.331420 -0.178288
v -2.006532 0.308374 -0.151265
v -2.121680 0.331275 -0.152713
v -1.930288 0.150891 0.159244
v -1.868861 0.159475 0.151159
v -2.001385 0.149047 0.167062
v -2.080015 0.159475 0.177785
v -1.950880 0.188483 0.286264
v -1.951949 0.194688 -0.009545
v -1.889694 0.202624 -0.014055
v -2.022354 0.192178 0.000402
v -2.100848 0.202624 0.012571
v -1.494071 0.424601 0.110334
v -1.679204 0.424305 0.215246
v -1.213409 0.225887 0.603783
v -1.292189 0.224598 0.649154
v -1.397922 0.224428 0.709368
v -1.352730 0.183146 0.358627
v -1.421677 0.173344 0.394918
v -1.483718 0.174746 0.430570
v -1.537700 0.183146 0.463893
v -1.435379 0.294513 0.213399
v -1.489740 0.288146 0.239609
v -1.549512 0.282961 0.277362
v -1.620349 0.294513 0.318665
v -1.279518 0.185810 0.487272
v -1.362708 0.173770 0.527457
v -1.460182 0.187138 0.600201
v -1.471896 0.370778 0.149340
v -1.551264 0.346654 0.209436
v -1.657334 0.370714 0.253656
v -1.368658 0.165142 0.455884
v -1.314657 0.173725 0.425527
v -1.431458 0.163390 0.490153
v -1.499627 0.173725 0.530793
v -1.337919 0.193097 0.583340
v -1.451234 0.221937 0.311547
v -1.395129 0.229592 0.284125
v -1.512601 0.219351 0.347466
v -1.580099 0.229592 0.389391
v -1.916553 0.381624 -0.226796
v -2.127720 0.381299 -0.200537
v -1.843964 0.227297 0.349974
v -1.934092 0.226046 0.361909
v -2.054803 0.225880 0.377179
v -1.878554 0.162929 0.074295
v -1.956039 0.152959 0.082255
v -2.027004 0.154379 0.091395
v -2.089707 0.162929 0.100920
v -1.900471 0.261073 -0.099521
v -1.960647 0.254410 -0.095568
v -2.030285 0.249489 -0.083118
v -2.111625 0.261073 -0.072895
v -1.860116 0.177004 0.220509
v -1.952229 0.164519 0.226806
v -2.070234 0.179006 0.255734
v -1.910457 0.331420 -0.178288
v -2.006532 0.308374 -0.151265
v -2.121680 0.331275 -0.152713
v -1.930288 0.150891 0.159244
v -1.868861 0.159475 0.151159
v -2.001385 0.149047 0.167062
v -2.080015 0.159475 0.177785
v -1.950880 0.188483 0.286264
v -1.951949 0.194688 -0.009545
v -1.889694 0.202624 -0.014055
v -2.022354 0.192178 0.000402
v -2.100848 0.202624 0.012571
vn 0.2492 -0.9236 0.2913
vn 0.1945 -0.9485 0.2499
vn 0.2444 -0.9512 0.1884
vn 0.2177 -0.9364 0.2753
vn 0.1658 -0.9271 0.3360
vn 0.1702 -0.9334 0.3159
vn -0.1990 -0.9300 -0.3091
vn -0.3961 -0.8602 -0.3213
vn -0.1134 -0.8622 -0.4937
vn -0.1178 -0.8787 -0.4625
vn -0.2854 -0.8887 -0.3589
vn -0.3400 -0.7898 -0.5105
vn -0.2466 -0.6834 -0.6871
vn -0.3392 -0.6658 -0.6646
vn -0.3509 -0.6083 -0.7120
vn -0.4073 -0.7393 -0.5362
vn -0.4945 -0.6896 -0.5291
vn -0.3904 -0.6904 -0.6091
vn -0.0316 -0.9943 0.1023
vn -0.1722 -0.9831 -0.0630
vn 0.0885 -0.9766 -0.1962
vn 0.1092 -0.9768 -0.1840
vn -0.2537 -0.9672 0.0120
vn -0.1684 -0.9575 -0.2340
vn 0.1047 -0.9857 0.1323
vn -0.1515 -0.9472 0.2827
vn -0.0436 -0.9889 0.1421
vn 0.1278 -0.8918 0.4340
vn 0.0934 -0.9215 0.3770
vn 0.1629 -0.9264 0.3395
vn 0.1049 -0.9068 0.4082
vn 0.0338 -0.8955 0.4437
vn 0.0454 -0.9030 0.4273
vn -0.0567 -0.9555 -0.2894
vn -0.2347 -0.8943 -0.3810
vn 0.0923 -0.8971 -0.4322
vn 0.0765 -0.9116 -0.4038
vn -0.1179 -0.9210 -0.3714
vn -0.1114 -0.8347 -0.5394
vn 0.0413 -0.7369 -0.6748
vn -0.0529 -0.7213 -0.6906
vn -0.0461 -0.6676 -0.7431
vn -0.1641 -0.7886 -0.5926
vn -0.2480 -0.7419 -0.6230
vn -0.1213 -0.7441 -0.6570
vn -0.0587 -0.9856 0.1583
vn -0.1256 -0.9909 -0.0483
vn 0.1663 -0.9834 -0.0724
vn 0.1807 -0.9821 -0.0532
vn -0.2296 -0.9732 -0.0114
vn -0.0570 -0.9768 -0.2064
vn 0.0557 -0.9699 0.2372
vn -0.2390 -0.9312 0.2752
vn -0.0851 -0.9781 0.1900
vn 0.0294 -0.9595 0.2802
vn 0.1075 -0.9553 0.2756
vn 0.1559 -0.9514 0.2656
vn 0.0477 -0.9437 0.3275
vn 0.1945 -0.9527 0.2333
vn 0.1929 -0.9684 0.1581
vn 0.2708 -0.9469 0.1734
vn 0.1392 -0.9383 0.3165
vn 0.1973 -0.9339 0.2982
vn 0.2181 -0.9266 0.3063
vn -0.2716 -0.7778 -0.5669
vn -0.1224 -0.7522 -0.6475
vn -0.1249 -0.7840 -0.6081
vn -0.2540 -0.7685 -0.5873
vn -0.2621 -0.8807 -0.3946
vn 0.0211 -0.8350 -0.5498
vn -0.0257 -0.8694 -0.4934
vn -0.2011 -0.8794 -0.4314
vn -0.3822 -0.7544 -0.5337
vn -0.2223 -0.7500 -0.6230
vn -0.2142 -0.7938 -0.5692
vn -0.3334 -0.7962 -0.5049
vn -0.3397 -0.7791 -0.5269
vn -0.3651 -0.7712 -0.5215
vn -0.4544 -0.7826 -0.4254
vn -0.4871 -0.7523 -0.4436
vn -0.2086 -0.8786 -0.4296
vn -0.2697 -0.8782 -0.3950
vn -0.4172 -0.8642 -0.2814
vn -0.4876 -0.8310 -0.2678
vn -0.3560 -0.5885 -0.7259
vn -0.4110 -0.6123 -0.6754
vn -0.4082 -0.6124 -0.6770
vn -0.4357 -0.6057 -0.6658
vn -0.3323 -0.6478 -0.6855
vn -0.3916 -0.6220 -0.6781
vn -0.2960 -0.6366 -0.7121
vn -0.2383 -0.7335 -0.6366
vn -0.3130 -0.6818 -0.6612
vn -0.1888 -0.6851 -0.7036
vn -0.3175 -0.7249 -0.6113
vn -0.4250 -0.6735 -0.6049
vn -0.2803 -0.6677 -0.6897
vn 0.1636 -0.9520 -0.2586
vn 0.2369 -0.9379 -0.2535
vn -0.1266 -0.9895 -0.0703
vn -0.0680 -0.9923 -0.1038
vn -0.4494 -0.6862 -0.5720
vn -0.4265 -0.6064 -0.6711
vn -0.3851 -0.6642 -0.6407
vn 0.2368 -0.9706 0.0435
vn 0.3286 -0.9440 0.0296
vn 0.0669 -0.9833 0.1690
vn 0.1560 -0.9793 0.1290
vn -0.3004 -0.9536 0.0200
vn -0.0521 -0.9928 -0.1075
vn 0.0058 -0.9902 -0.1395
vn -0.3349 -0.9386 0.0831
vn -0.0395 -0.9767 0.2110
vn 0.0609 -0.9971 0.0457
vn 0.2379 -0.9698 0.0531
vn 0.1548 -0.9396 0.3052
vn -0.0451 -0.9714 0.2331
vn 0.0692 -0.9800 0.1864
vn -0.0707 -0.9367 0.3429
vn 0.0031 -0.9298 0.3680
vn 0.0518 -0.9248 0.3770
vn -0.0720 -0.9171 0.3921
vn 0.0998 -0.9268 0.3620
vn 0.1272 -0.9475 0.2932
vn 0.1929 -0.9221 0.3354
vn 0.0167 -0.9090 0.4165
vn 0.0774 -0.9036 0.4214
vn 0.0933 -0.8950 0.4362
vn -0.0267 -0.8238 -0.5662
vn 0.1416 -0.7980 -0.5858
vn 0.1247 -0.8272 -0.5479
vn -0.0027 -0.8152 -0.5791
vn -0.0828 -0.9145 -0.3960
vn 0.2378 -0.8686 -0.4348
vn 0.1732 -0.9009 -0.3979
vn -0.0124 -0.9134 -0.4069
vn -0.1418 -0.8025 -0.5795
vn 0.0400 -0.7980 -0.6013
vn 0.0273 -0.8377 -0.5454
vn -0.1073 -0.8404 -0.5312
vn -0.1050 -0.8251 -0.5552
vn -0.1305 -0.8179 -0.5604
vn -0.2496 -0.8261 -0.5052
vn -0.2732 -0.7984 -0.5366
vn -0.0199 -0.9127 -0.4081
vn -0.0898 -0.9124 -0.3994
vn -0.2695 -0.8964 -0.3519
vn -0.3402 -0.8650 -0.3688
vn -0.0457 -0.6489 -0.7595
vn -0.1157 -0.6714 -0.7320
vn -0.1125 -0.6716 -0.7323
vn -0.1421 -0.6652 -0.7331
vn -0.0387 -0.7045 -0.7087
vn -0.0966 -0.6805 -0.7263
vn 0.0049 -0.6937 -0.7203
vn 0.0302 -0.7830 -0.6213
vn -0.0298 -0.7360 -0.6763
vn 0.1012 -0.7374 -0.6679
vn -0.0528 -0.7759 -0.6287
vn -0.1549 -0.7282 -0.6676
vn 0.0112 -0.7226 -0.6912
vn 0.2592 -0.9603 -0.1032
vn 0.3249 -0.9430 -0.0717
vn -0.0806 -0.9961 -0.0372
vn -0.0136 -0.9989 -0.0456
vn -0.1900 -0.7397 -0.6456
vn -0.1317 -0.6658 -0.7344
vn -0.1045 -0.7199 -0.6862
vn 0.2115 -0.9557 0.2045
vn 0.3014 -0.9267 0.2246
vn 0.0066 -0.9665 0.2566
vn 0.1042 -0.9618 0.2532
vn -0.2760 -0.9609 -0.0229
vn 0.0025 -0.9991 -0.0429
vn 0.0683 -0.9964 -0.0506
vn -0.3321 -0.9430 0.0209
vn -0.1076 -0.9611 0.2542
vn 0.0484 -0.9887 0.1415
vn 0.2090 -0.9543 0.2137
vn 0.0354 -0.9105 0.4120
vn -0.1215 -0.9546 0.2720
vn 0.0022 -0.9620 0.2732
vn -0.1555 0.9689 -0.1923
vn -0.1741 0.9450 -0.2768
vn -0.2140 0.9426 -0.2563
vn -0.1422 0.9236 -0.3559
vn -0.1952 0.9268 -0.3207
vn -0.1637 0.9383 -0.3047
vn 0.3174 0.8374 0.4450
vn 0.2244 0.9459 0.2344
vn 0.0938 0.9375 0.3350
vn 0.3101 0.8358 0.4530
vn 0.1495 0.9438 0.2947
vn 0.2155 0.8251 0.5223
vn 0.3657 0.6496 0.6665
vn 0.3012 0.7297 0.6138
vn 0.3184 0.6453 0.6944
vn 0.4800 0.6518 0.5871
vn 0.4350 0.7406 0.5121
vn 0.3959 0.7359 0.5492
vn 0.1505 0.9502 0.2730
vn 0.0678 0.9970 -0.0381
vn -0.0874 0.9960 0.0169
vn 0.2439 0.9393 0.2412
vn 0.0822 0.9959 -0.0373
vn 0.0423 0.9489 0.3127
vn 0.1055 0.9914 -0.0774
vn 0.0269 0.9632 -0.2676
vn -0.0160 0.9980 -0.0609
vn -0.0795 0.9472 -0.3105
vn -0.0642 0.9170 -0.3937
vn -0.1088 0.9145 -0.3898
vn -0.0042 0.8916 -0.4528
vn -0.0667 0.8951 -0.4408
vn -0.0439 0.9088 -0.4150
vn 0.1150 0.8768 0.4668
vn 0.1086 0.9673 0.2290
vn -0.0504 0.9608 0.2727
vn 0.1053 0.8755 0.4715
vn 0.0164 0.9665 0.2562
vn -0.0085 0.8659 0.5002
vn 0.0767 0.7064 0.7037
vn 0.0366 0.7802 0.6245
vn 0.0225 0.7021 0.7117
vn 0.2127 0.7076 0.6739
vn 0.1990 0.7894 0.5808
vn 0.1488 0.7857 0.6005
vn 0.0255 0.9714 0.2361
vn 0.0676 0.9940 -0.0857
vn -0.0968 0.9909 -0.0940
vn 0.1241 0.9620 0.2432
vn 0.0806 0.9936 -0.0793
vn -0.0896 0.9687 0.2316
vn 0.1175 0.9873 -0.1071
vn 0.1179 0.9434 -0.3101
vn -0.0011 0.9904 -0.1385
vn -0.1420 0.9496 -0.2794
vn -0.0761 0.9711 -0.2262
vn -0.0271 0.9700 -0.2415
vn -0.1077 0.9518 -0.2871
vn -0.2241 0.9638 -0.1443
vn -0.1959 0.9652 -0.1733
vn -0.2711 0.9339 -0.2330
vn -0.2473 0.9225 -0.2962
vn -0.1885 0.9389 -0.2880
vn -0.1908 0.9270 -0.3228
vn 0.1570 0.8235 0.5452
vn 0.2314 0.7365 0.6357
vn 0.2462 0.7340 0.6329
vn 0.1742 0.8255 0.5369
vn 0.0421 0.9380 0.3440
vn 0.1606 0.8263 0.5398
vn 0.1658 0.8260 0.5387
vn 0.0804 0.9419 0.3262
vn 0.2214 0.8313 0.5099
vn 0.2912 0.7339 0.6137
vn 0.3452 0.7332 0.5858
vn 0.2839 0.8323 0.4760
vn 0.3808 0.8243 0.4189
vn 0.3677 0.8261 0.4270
vn 0.4071 0.7359 0.5410
vn 0.4202 0.7372 0.5291
vn 0.2770 0.9366 0.2147
vn 0.2820 0.9362 0.2096
vn 0.3573 0.8289 0.4305
vn 0.3845 0.8238 0.4165
vn 0.4171 0.6494 0.6359
vn 0.4213 0.6257 0.6565
vn 0.3918 0.6054 0.6928
vn 0.4005 0.6192 0.6754
vn 0.3310 0.6305 0.7021
vn 0.3389 0.6654 0.6651
vn 0.2796 0.6766 0.6812
vn 0.2512 0.6440 0.7226
vn 0.2516 0.7318 0.6334
vn 0.2069 0.7343 0.6465
vn 0.3560 0.6519 0.6696
vn 0.3578 0.7389 0.5710
vn 0.2657 0.7336 0.6255
vn -0.1279 0.9904 0.0526
vn -0.1215 0.9913 0.0506
vn 0.0445 0.9362 0.3487
vn 0.0911 0.9443 0.3162
vn 0.3753 0.6461 0.6646
vn 0.4238 0.6450 0.6359
vn 0.3541 0.7271 0.5882
vn -0.1741 0.9726 -0.1542
vn -0.2035 0.9686 -0.1431
vn -0.1251 0.9913 0.0415
vn -0.1663 0.9845 0.0551
vn 0.0672 0.9961 -0.0568
vn 0.2918 0.9355 0.1991
vn 0.2753 0.9377 0.2119
vn 0.1024 0.9913 -0.0829
vn -0.1019 0.9935 0.0500
vn 0.0621 0.9966 -0.0541
vn -0.1377 0.9769 -0.1634
vn -0.0486 0.9968 -0.0636
vn -0.0152 0.9638 -0.2662
vn -0.1043 0.9694 -0.2222
vn -0.0335 0.9226 -0.3842
vn 0.0068 0.9501 -0.3117
vn 0.0580 0.9499 -0.3071
vn 0.0011 0.9256 -0.3784
vn -0.1612 0.9427 -0.2921
vn -0.1241 0.9432 -0.3082
vn -0.1705 0.9052 -0.3894
vn -0.1242 0.8905 -0.4377
vn -0.0731 0.9096 -0.4090
vn -0.0619 0.8953 -0.4411
vn -0.0713 0.8636 0.4991
vn -0.0363 0.7858 0.6175
vn -0.0216 0.7837 0.6208
vn -0.0522 0.8656 0.4979
vn -0.1017 0.9599 0.2612
vn -0.0659 0.8662 0.4953
vn -0.0607 0.8660 0.4963
vn -0.0595 0.9640 0.2591
vn 0.0016 0.8714 0.4905
vn 0.0273 0.7840 0.6202
vn 0.0879 0.7835 0.6152
vn 0.0723 0.8726 0.4830
vn 0.1837 0.8645 0.4679
vn 0.1685 0.8663 0.4702
vn 0.1623 0.7856 0.5971
vn 0.1789 0.7865 0.5911
vn 0.1648 0.9588 0.2315
vn 0.1713 0.9583 0.2288
vn 0.1575 0.8689 0.4692
vn 0.1881 0.8640 0.4671
vn 0.1361 0.7060 0.6950
vn 0.1322 0.6839 0.7175
vn 0.0913 0.6650 0.7413
vn 0.1058 0.6780 0.7274
vn 0.0314 0.6883 0.7247
vn 0.0525 0.7210 0.6910
vn -0.0086 0.7310 0.6824
vn -0.0503 0.7002 0.7122
vn -0.0167 0.7817 0.6235
vn -0.0631 0.7834 0.6183
vn 0.0667 0.7084 0.7026
vn 0.1052 0.7886 0.6058
vn -0.0007 0.7835 0.6214
vn -0.1478 0.9861 -0.0760
vn -0.1412 0.9871 -0.0755
vn -0.1012 0.9585 0.2667
vn -0.0459 0.9662 0.2538
vn 0.0864 0.7030 0.7059
vn 0.1422 0.7019 0.6979
vn 0.0953 0.7779 0.6211
vn -0.1113 0.9527 -0.2828
vn -0.1427 0.9483 -0.2835
vn -0.1411 0.9863 -0.0852
vn -0.1842 0.9790 -0.0879
vn 0.0742 0.9919 -0.1030
vn 0.1845 0.9572 0.2229
vn 0.1643 0.9596 0.2283
vn 0.1167 0.9867 -0.1133
vn -0.1228 0.9900 -0.0688
vn 0.0685 0.9924 -0.1025
vn -0.0742 0.9578 -0.2778
vn -0.0302 0.9877 -0.1534
vn 0.0784 0.9425 -0.3249
vn -0.0208 0.9476 -0.3187
vn -0.0077 -0.0063 1.0000
vn -0.0000 -0.0000 1.0000
vn -0.0159 0.0056 0.9999
vn -0.0703 -0.0005 0.9975
vn -0.0282 0.0967 0.9949
vn 0.0468 0.0342 0.9983
vn -0.0090 -0.0089 0.9999
vn -0.0602 0.0866 0.9944
vn 0.0321 0.0340 0.9989
vn -0.1805 0.0447 0.9826
vn 0.0363 0.1332 0.9904
vn 0.0107 0.0111 0.9999
vn -0.0267 -0.0380 0.9989
vn 0.0296 0.0402 0.9988
vn 0.0289 -0.0087 0.9995
vn -0.0546 0.0626 0.9965
vn 0.0448 -0.0212 0.9988
vn 0.1348 -0.0300 0.9904
vn -0.0433 -0.1808 0.9826
vn 0.0523 0.0383 0.9979
vn -0.0078 -0.0077 0.9999
vn -0.0181 -0.0724 0.9972
vn -0.0078 0.0358 0.9993
vn 0.0437 -0.0507 0.9978
vn -0.1567 -0.1346 0.9784
vn 0.0481 -0.0114 0.9988
vn -0.0819 -0.0149 0.9965
vn -0.0620 0.0456 0.9970
vn 0.0093 -0.0029 1.0000
vn 0.0136 -0.0447 0.9989
vn -0.0925 -0.0509 0.9944
vn -0.0348 0.0799 0.9962
vn 0.0337 -0.0310 0.9990
vn 0.0095 0.0099 0.9999
vn -0.0309 -0.0436 0.9986
vn -0.0529 -0.0529 0.9972
vn -0.0768 0.0431 0.9961
vn 0.0936 0.0370 0.9949
vn -0.0581 -0.0640 0.9963
vn -0.0258 0.1083 0.9938
vn 0.0384 0.0182 0.9991
vn -0.1916 0.0683 0.9791
vn 0.0401 0.1047 0.9937
vn 0.0390 -0.0237 0.9990
vn -0.0867 0.0112 0.9962
vn 0.1065 -0.0351 0.9937
vn -0.0668 -0.1920 0.9791
vn -0.0033 -0.0424 0.9991
vn -0.1104 -0.0145 0.9938
vn 0.0355 0.0804 0.9961
vn 0.0037 -0.0920 0.9958
vn -0.0499 0.0633 0.9967
vn 0.0077 -0.0048 1.0000
vn 0.0024 0.0108 0.9999
vn -0.0733 0.0333 0.9968
vn 0.0356 -0.0696 0.9969
vn -0.0266 0.0199 0.9994
vn -0.0658 0.2099 0.9755
vn 0.0564 0.0176 0.9983
vn -0.0036 0.0452 0.9990
vn 0.0288 0.0129 0.9995
vn 0.0144 -0.0573 0.9983
vn -0.2136 -0.0531 0.9755
vn -0.1438 0.1483 0.9784
vn 0.0482 0.0464 0.9978
vn -0.0088 -0.0074 0.9999
vn -0.0144 0.0050 0.9999
vn -0.0006 0.0118 0.9999
vn -0.0759 0.0121 0.9970
vt 0.000229 0.000000
vt 0.999999 0.000000
vt 0.000267 1.000001
vt 0.427965 1.000000
vt 0.999999 0.999982
vt 0.000000 0.500000
vt 0.366180 0.500000
vt 0.701919 0.500000
vt 1.000000 0.500000
vt 0.000000 0.250000
vt 0.283122 0.250000
vt 0.616500 0.250000
vt 1.000000 0.250000
vt 0.000000 0.750000
vt 0.434708 0.750000
vt 1.000215 0.750000
vt -0.000375 0.125000
vt 0.461549 0.125000
vt 1.000307 0.125000
vt 0.291283 0.625000
vt 0.000000 0.625000
vt 0.626927 0.625000
vt 1.000000 0.625000
vt 0.456890 0.875000
vt 0.293055 0.375000
vt 0.000000 0.375000
vt 0.626767 0.375000
vt 1.000000 0.375000
vt 0.000229 0.000000
vt 0.999999 0.000000
vt 0.000268 1.000001
vt 0.427981 1.000000
vt 1.000000 0.999983
vt 0.000000 0.500000
vt 0.366175 0.500000
vt 0.701903 0.500000
vt 1.000000 0.500000
vt 0.000000 0.250000
vt 0.283059 0.250000
vt 0.616567 0.250000
vt 1.000000 0.250000
vt 0.000000 0.750000
vt 0.434709 0.750000
vt 1.000214 0.750000
vt -0.000376 0.125000
vt 0.461536 0.125000
vt 1.000307 0.125000
vt 0.291319 0.625000
vt 0.000000 0.625000
vt 0.626906 0.625000
vt 1.000000 0.625000
vt 0.456908 0.875000
vt 0.293081 0.375000
vt 0.000000 0.375000
vt 0.626762 0.375000
vt 1.000000 0.375000
vt 0.000229 0.000000
vt 0.999999 0.000000
vt 0.000267 1.000001
vt 0.427965 1.000000
vt 0.999999 0.999982
vt 0.000000 0.500000
vt 0.366180 0.500000
vt 0.701919 0.500000
vt 1.000000 0.500000
vt 0.000000 0.250000
vt 0.283122 0.250000
vt 0.616500 0.250000
vt 1.000000 0.250000
vt 0.000000 0.750000
vt 0.434708 0.750000
vt 1.000215 0.750000
vt -0.000375 0.125000
vt 0.461549 0.125000
vt 1.000307 0.125000
vt 0.291283 0.625000
vt 0.000000 0.625000
vt 0.626927 0.625000
vt 1.000000 0.625000
vt 0.456890 0.875000
vt 0.293055 0.375000
vt 0.000000 0.375000
vt 0.626767 0.375000
vt 1.000000 0.375000
vt 0.000229 0.000000
vt 0.999999 0.000000
vt 0.000268 1.000001
vt 0.427981 1.000000
vt 1.000000 0.999983
vt 0.000000 0.500000
vt 0.366175 0.500000
vt 0.701903 0.500000
vt 1.000000 0.500000
vt 0.000000 0.250000
vt 0.283059 0.250000
vt 0.616567 0.250000
vt 1.000000 0.250000
vt 0.000000 0.750000
vt 0.434709 0.750000
vt 1.000214 0.750000
vt -0.000376 0.125000
vt 0.461536 0.125000
vt 1.000307 0.125000
vt 0.291319 0.625000
vt 0.000000 0.625000
vt 0.626906 0.625000
vt 1.000000 0.625000
vt 0.456908 0.875000
vt 0.293081 0.375000
vt 0.000000 0.375000
vt 0.626762 0.375000
vt 1.000000 0.375000
s 0
usemtl _Faky_tissu
f 15/15/1 3/3/2 24/24/3
f 5/5/4 24/24/5 4/4/6
f 27/27/7 7/7/8 8/8/9
f 27/27/10 25/25/11 7/7/12
f 18/18/13 17/17/14 11/11/15
f 19/19/16 12/12/17 13/13/18
f 7/7/19 20/20/20 22/22/21
f 8/8/22 7/7/23 22/22/24
f 23/23/25 22/22/26 16/16/27
f 43/43/28 31/31/29 52/52/30
f 33/33/31 52/52/32 32/32/33
f 55/55/34 35/35/35 36/36/36
f 55/55/37 53/53/38 35/35/39
f 46/46/40 45/45/41 39/39/42
f 47/47/43 40/40/44 41/41/45
f 35/35/46 48/48/47 50/50/48
f 36/36/49 35/35/50 50/50/51
f 51/51/52 50/50/53 44/44/54
f 24/24/55 5/5/56 16/16/57 15/15/58
f 14/14/59 3/3/60 15/15/61
f 3/3/62 4/4/63 24/24/64
f 26/26/65 25/25/66 11/11/67 10/10/68
f 6/6/69 7/7/70 25/25/71 26/26/72
f 25/25/73 27/27/74 12/12/75 11/11/76
f 28/28/77 13/13/78 12/12/79 27/27/80
f 9/9/81 28/28/82 27/27/83 8/8/84
f 19/19/85 2/2/86 1/1/87 18/18/88
f 1/1/89 17/17/90 18/18/91
f 17/17/92 10/10/93 11/11/94
f 18/18/95 11/11/96 12/12/97
f 20/20/98 7/7/99 6/6/100 21/21/101
f 18/18/102 12/12/103 19/19/104
f 15/15/105 20/20/106 21/21/107 14/14/108
f 22/22/109 23/23/110 9/9/111 8/8/112
f 20/20/113 15/15/114 22/22/115
f 22/22/116 15/15/117 16/16/118
f 52/52/119 33/33/120 44/44/121 43/43/122
f 42/42/123 31/31/124 43/43/125
f 31/31/126 32/32/127 52/52/128
f 54/54/129 53/53/130 39/39/131 38/38/132
f 34/34/133 35/35/134 53/53/135 54/54/136
f 53/53/137 55/55/138 40/40/139 39/39/140
f 56/56/141 41/41/142 40/40/143 55/55/144
f 37/37/145 56/56/146 55/55/147 36/36/148
f 47/47/149 30/30/150 29/29/151 46/46/152
f 29/29/153 45/45/154 46/46/155
f 45/45/156 38/38/157 39/39/158
f 46/46/159 39/39/160 40/40/161
f 48/48/162 35/35/163 34/34/164 49/49/165
f 46/46/166 40/40/167 47/47/168
f 43/43/169 48/48/170 49/49/171 42/42/172
f 50/50/173 51/51/174 37/37/175 36/36/176
f 48/48/177 43/43/178 50/50/179
f 50/50/180 43/43/181 44/44/182
f 71/71/183 80/80/184 59/59/185
f 61/61/186 60/60/187 80/80/188
f 83/83/189 64/64/190 63/63/191
f 83/83/192 63/63/193 81/81/194
f 74/74/195 67/67/196 73/73/197
f 75/75/198 69/69/199 68/68/200
f 63/63/201 78/78/202 76/76/203
f 64/64/204 78/78/205 63/63/206
f 79/79/207 72/72/208 78/78/209
f 99/99/210 108/108/211 87/87/212
f 89/89/213 88/88/214 108/108/215
f 111/111/216 92/92/217 91/91/218
f 111/111/219 91/91/220 109/109/221
f 102/102/222 95/95/223 101/101/224
f 103/103/225 97/97/226 96/96/227
f 91/91/228 106/106/229 104/104/230
f 92/92/231 106/106/232 91/91/233
f 107/107/234 100/100/235 106/106/236
f 80/80/237 71/71/238 72/72/239 61/61/240
f 70/70/241 71/71/242 59/59/243
f 59/59/244 80/80/245 60/60/246
f 82/82/247 66/66/248 67/67/249 81/81/250
f 62/62/251 82/82/252 81/81/253 63/63/254
f 81/81/255 67/67/256 68/68/257 83/83/258
f 84/84/259 83/83/260 68/68/261 69/69/262
f 65/65/263 64/64/264 83/83/265 84/84/266
f 75/75/267 74/74/268 57/57/269 58/58/270
f 57/57/271 74/74/272 73/73/273
f 73/73/274 67/67/275 66/66/276
f 74/74/277 68/68/278 67/67/279
f 76/76/280 77/77/281 62/62/282 63/63/283
f 74/74/284 75/75/285 68/68/286
f 71/71/287 70/70/288 77/77/289 76/76/290
f 78/78/291 64/64/292 65/65/293 79/79/294
f 76/76/295 78/78/296 71/71/297
f 78/78/298 72/72/299 71/71/300
f 108/108/301 99/99/302 100/100/303 89/89/304
f 98/98/305 99/99/306 87/87/307
f 87/87/308 108/108/309 88/88/310
f 110/110/311 94/94/312 95/95/313 109/109/314
f 90/90/315 110/110/316 109/109/317 91/91/318
f 109/109/319 95/95/320 96/96/321 111/111/322
f 112/112/323 111/111/324 96/96/325 97/97/326
f 93/93/327 92/92/328 111/111/329 112/112/330
f 103/103/331 102/102/332 85/85/333 86/86/334
f 85/85/335 102/102/336 101/101/337
f 101/101/338 95/95/339 94/94/340
f 102/102/341 96/96/342 95/95/343
f 104/104/344 105/105/345 90/90/346 91/91/347
f 102/102/348 103/103/349 96/96/350
f 99/99/351 98/98/352 105/105/353 104/104/354
f 106/106/355 92/92/356 93/93/357 107/107/358
f 104/104/359 106/106/360 99/99/361
f 106/106/362 100/100/363 99/99/364
f 1/1/365 2/2/366 58/58/367 57/57/366
f 14/14/368 21/21/366 77/77/369 70/70/366
f 33/33/370 32/32/366 88/88/371 89/89/366
f 26/26/372 10/10/366 66/66/373 82/82/366
f 21/21/374 6/6/366 62/62/375 77/77/366
f 4/4/376 3/3/366 59/59/377 60/60/366
f 16/16/378 5/5/366 61/61/379 72/72/366
f 10/10/380 17/17/366 73/73/381 66/66/366
f 9/9/382 23/23/366 79/79/383 65/65/366
f 5/5/384 4/4/366 60/60/385 61/61/366
f 3/3/386 14/14/366 70/70/387 59/59/366
f 28/28/388 9/9/366 65/65/389 84/84/366
f 19/19/390 13/13/366 69/69/391 75/75/366
f 17/17/392 1/1/366 57/57/393 73/73/366
f 13/13/394 28/28/366 84/84/395 69/69/366
f 38/38/396 45/45/366 101/101/397 94/94/366
f 32/32/398 31/31/366 87/87/399 88/88/366
f 42/42/400 49/49/366 105/105/401 98/98/366
f 23/23/402 16/16/366 72/72/403 79/79/366
f 54/54/404 38/38/366 94/94/405 110/110/366
f 49/49/406 34/34/366 90/90/407 105/105/366
f 47/47/408 41/41/366 97/97/409 103/103/366
f 37/37/410 51/51/366 107/107/411 93/93/366
f 41/41/412 56/56/366 112/112/413 97/97/366
f 51/51/414 44/44/366 100/100/415 107/107/366
f 45/45/416 29/29/366 85/85/417 101/101/366
f 30/30/418 47/47/366 103/103/419 86/86/366
f 31/31/420 42/42/366 98/98/421 87/87/366
f 34/34/422 54/54/366 110/110/423 90/90/366
f 44/44/424 33/33/366 89/89/425 100/100/366
f 56/56/426 37/37/366 93/93/427 112/112/366
f 6/6/428 26/26/366 82/82/429 62/62/366
f 29/29/430 30/30/366 86/86/431 85/85/366
f 2/2/432 19/19/366 75/75/433 58/58/366
