# Blender 3.5.0
# www.blender.org
mtllib roof.mtl
o House.007
v -0.147403 2.231560 -0.669916
v -0.811426 2.233379 -0.662800
v -0.147403 2.253886 -0.677578
v -0.811426 2.253886 -0.677578
v -0.147403 1.919161 -0.949103
v -0.811426 1.919161 -0.949103
v -0.811426 1.934566 -0.964972
v -0.147403 1.934566 -0.964972
v -0.147403 2.231560 -0.655680
v -0.147403 2.253886 -0.648015
v -0.811426 2.253886 -0.648015
v -0.147403 1.919161 -0.376341
v -0.811426 1.919161 -0.376341
v -0.811426 1.934566 -0.360463
v -0.147403 1.934566 -0.360463
v -0.009406 0.067290 0.888056
v 0.959233 0.067290 0.888056
v -0.009406 0.067290 0.431810
v 0.959233 0.067290 0.431810
v -0.009406 0.039992 0.431810
v 0.959233 0.039992 0.431810
v 0.959233 0.039992 0.888056
v -0.009406 0.039992 0.888056
v 0.010650 0.044985 0.864365
v 0.939167 0.044985 0.864365
v 0.010650 0.044985 0.431810
v 0.939167 0.044985 0.431810
v 0.010650 -0.053159 0.431810
v 0.939167 -0.053159 0.431810
v 0.939167 -0.053159 0.864365
v 0.010650 -0.053159 0.864365
v -0.013426 2.341418 0.493419
v 0.013426 2.341418 0.493419
v 0.013426 2.341418 -1.818854
v -0.013426 2.341418 -1.818854
v 1.133284 1.083362 0.493419
v 1.133284 1.083362 -1.818854
v -1.133284 1.083362 0.493419
v -1.133284 1.083362 -1.818854
v -0.027380 2.372503 0.493419
v 0.027380 2.372503 0.493419
v 0.027380 2.372503 -1.818854
v -0.027380 2.372503 -1.818854
v 1.161180 1.108221 0.493419
v 1.161180 1.108221 -1.818854
v -1.161180 1.108221 0.493419
v -1.161180 1.108221 -1.818854
vn -1.0000 -0.0000 -0.0000
vn -0.0000 1.0000 -0.0000
vn 0.0031 -0.6700 0.7424
vn -0.0027 -1.0000 -0.0000
vn -0.0000 0.6690 -0.7433
vn 0.0031 -0.6702 -0.7422
vn -0.0000 0.6692 0.7431
vn -0.0000 -0.7177 0.6963
vn -0.0000 -0.7175 -0.6965
vn 1.0000 -0.0000 -0.0000
vn -0.0000 -0.0000 1.0000
vn -0.0000 -1.0000 -0.0000
vn 0.7445 0.6676 -0.0000
vn -0.7445 0.6676 -0.0000
vn -0.7469 -0.6649 -0.0000
vn 0.7469 -0.6649 -0.0000
vn -0.0000 -0.0000 -1.0000
vn 0.6653 -0.7466 -0.0000
vn -0.6653 -0.7466 -0.0000
vt 0.013585 0.068557
vt 0.013482 0.845714
vt 0.302625 0.068595
vt 0.302523 0.842654
vt 0.443181 0.199646
vt 0.013535 0.447556
vt 0.452894 0.206079
vt 0.302575 0.447594
vt 0.013561 0.250933
vt 0.307198 0.324273
vt 0.302601 0.250971
vt 0.313891 0.331178
vt 0.302600 0.260587
vt 0.013559 0.260549
vt 0.013482 0.839517
vt 0.013533 0.460425
vt 0.452894 0.193210
vt 0.302573 0.460463
vt 0.013507 0.657096
vt 0.307197 0.074951
vt 0.302547 0.657135
vt 0.313891 0.068043
vt 0.302548 0.647516
vt 0.013508 0.647478
vt 0.781503 0.423076
vt 0.359864 0.423119
vt 0.781483 0.224478
vt 0.359844 0.224521
vt 0.793365 0.224477
vt 0.781524 0.633555
vt 0.347962 0.224522
vt 0.359885 0.633598
vt 0.347982 0.423120
vt 0.359865 0.435001
vt 0.793385 0.423074
vt 0.781504 0.434958
vt 0.455882 0.718082
vt 0.455926 0.313903
vt 0.644163 0.718103
vt 0.644207 0.313924
vt 0.644158 0.760823
vt 0.644212 0.271203
vt 0.455930 0.271183
vt 0.413205 0.313899
vt 0.413161 0.718077
vt 0.455877 0.760803
vt 1.069428 0.055799
vt 1.819890 0.064485
vt 1.069427 0.044111
vt 1.069756 3.056897
vt 1.811189 0.056681
vt 0.062905 0.044221
vt 0.063234 3.057007
vt 1.865886 0.781105
vt 0.062906 0.055909
vt 1.874585 0.788912
vt 1.069676 2.323755
vt 1.082664 0.138888
vt 0.063154 2.323864
vt 1.868829 0.047969
vt 1.069508 0.788942
vt 1.817155 0.797627
vt 0.062986 0.789052
vt 2.603127 0.706913
vt 1.069591 1.544430
vt 1.833453 0.058461
vt 1.069594 1.568267
vt 1.815707 0.042545
vt 0.063071 1.568377
vt 1.852321 0.787126
vt 0.063068 1.544540
vt 1.870062 0.803046
vt 1.069674 2.307489
vt 1.080841 0.122725
vt 0.063152 2.307599
vt 1.852564 0.047904
vt 1.069510 0.805207
vt 1.833420 0.797688
vt 0.062988 0.805317
vt 2.604946 0.723077
s 0
usemtl _Faky_ORANGE_house2
f 4/7/1 2/5/1 11/17/1
f 10/16/2 3/6/2 4/8/2 11/18/2
f 6/11/3 5/9/3 1/1/3 2/3/3
f 1/2/4 9/15/4 2/4/4
f 2/5/1 4/7/1 7/12/1 6/10/1
f 3/6/5 8/14/5 7/13/5 4/8/5
f 9/15/6 12/19/6 13/21/6 2/4/6
f 2/5/1 13/20/1 14/22/1 11/17/1
f 14/23/7 15/24/7 10/16/7 11/18/7
f 14/23/8 13/21/8 12/19/8 15/24/8
f 8/14/9 5/9/9 6/11/9 7/13/9
f 21/31/10 19/28/10 17/26/10 22/33/10
f 22/34/11 17/26/11 16/25/11 23/36/11
f 23/35/1 16/25/1 18/27/1 20/29/1
f 16/25/2 17/26/2 19/28/2 18/27/2
f 20/30/12 21/32/12 22/34/12 23/36/12
f 29/42/10 27/40/10 25/38/10 30/43/10
f 30/44/11 25/38/11 24/37/11 31/45/11
f 31/46/1 24/37/1 26/39/1 28/41/1
f 24/37/2 25/38/2 27/40/2 26/39/2
f 41/67/2 42/69/2 43/71/2 40/65/2
f 44/73/13 45/75/13 42/69/13 41/67/13
f 40/65/14 43/71/14 47/79/14 46/77/14
f 32/47/12 35/55/12 34/52/12 33/49/12
f 36/57/15 33/50/15 34/53/15 37/59/15
f 38/61/16 39/63/16 35/55/16 32/47/16
f 40/66/11 32/48/11 33/51/11 41/68/11
f 43/72/17 42/70/17 34/54/17 35/56/17
f 36/57/18 37/59/18 45/75/18 44/73/18
f 45/76/17 37/60/17 34/54/17 42/70/17
f 44/74/11 41/68/11 33/51/11 36/58/11
f 46/77/19 47/79/19 39/63/19 38/61/19
f 46/78/11 38/62/11 32/48/11 40/66/11
f 47/80/17 43/72/17 35/56/17 39/64/17
