# Blender 3.5.0
# www.blender.org
mtllib walls.mtl
o House.008
v -0.780226 1.927591 -0.396928
v -0.780226 1.927591 -0.928506
v -0.780226 2.226278 -0.663900
v -0.780226 2.226278 -0.661534
v -0.780226 1.560668 -0.396928
v -0.780226 1.560668 -0.928506
v -0.453935 1.927591 -0.396928
v -0.453935 1.560668 -0.396928
v -0.453935 1.927591 -0.928506
v -0.453935 1.560668 -0.928506
v -0.780226 1.954947 -0.544277
v -0.780226 1.954947 -0.781158
v -0.780226 1.600179 -0.781158
v -0.780226 1.600179 -0.544277
v -1.090919 0.078336 0.431810
v 1.090919 0.078336 0.431810
v -1.090919 1.096516 0.431810
v 1.090919 1.096516 0.431810
v -1.090919 1.096516 -1.757245
v 1.090919 1.096516 -1.757245
v -1.090919 0.078336 -1.757245
v 1.090919 0.078336 -1.757245
v 0.004855 2.322352 -1.757245
v -0.004855 2.322352 -1.757245
v -0.363707 0.757145 -1.757245
v 0.363707 0.757145 -1.757245
v 0.363707 0.078336 -1.757245
v -0.363707 0.078336 -1.757245
vn -1.0000 -0.0000 -0.0000
vn -0.0000 -0.0000 1.0000
vn -0.0000 -0.0000 -1.0000
vn 1.0000 -0.0000 -0.0000
vt 0.634844 0.171734
vt 0.403454 0.171693
vt 0.518612 0.301718
vt 0.519641 0.301718
vt 0.634873 0.012010
vt 0.403483 0.011969
vt 0.776874 0.171759
vt 0.776902 0.012035
vt 0.261425 0.171668
vt 0.261453 0.011944
vt 0.570704 0.183622
vt 0.467591 0.183604
vt 0.467618 0.029168
vt 0.570731 0.029186
vt 0.023103 0.016440
vt 0.972839 0.016600
vt 0.023028 0.459645
vt 0.972764 0.459804
vt -0.929851 0.459484
vt 1.925643 0.459965
vt -1.879587 0.459325
vt -0.929776 0.016280
vt 1.925718 0.016760
vt -1.879512 0.016120
vt -1.406922 0.993006
vt -1.402695 0.993007
vt -1.246373 0.311711
vt -1.563015 0.311658
vt -1.562965 0.016173
vt -1.246323 0.016226
s 0
usemtl _Planks_Kame_House
f 2/2/1 12/12/1 3/3/1
f 7/7/2 1/1/2 5/5/2 8/8/2
f 10/10/3 6/6/3 2/2/3 9/9/3
f 11/11/1 4/4/1 3/3/1 12/12/1
f 1/1/1 4/4/1 11/11/1
f 13/13/1 12/12/1 2/2/1 6/6/1
f 14/14/1 13/13/1 6/6/1 5/5/1
f 14/14/1 5/5/1 1/1/1 11/11/1
f 18/18/4 16/16/4 22/23/4 20/20/4
f 19/19/1 21/22/1 15/15/1 17/17/1
f 23/25/3 20/21/3 19/19/3 24/26/3
f 25/27/3 19/19/3 20/21/3 26/28/3
f 26/28/3 20/21/3 22/24/3 27/29/3
f 25/27/3 28/30/3 21/22/3 19/19/3
