# Blender 3.5.0
# www.blender.org
mtllib windows.mtl
o House.006
v -0.355393 0.086649 -1.706608
v 0.355393 0.086649 -1.706608
v -0.355393 0.748837 -1.706608
v 0.355393 0.748837 -1.706608
v -0.355393 0.748837 -1.699649
v 0.355393 0.748837 -1.699649
v -0.355393 0.086649 -1.699649
v 0.355393 0.086649 -1.699649
v -0.747271 1.616839 -0.761717
v -0.747271 1.938160 -0.761717
v -0.751936 1.938160 -0.761717
v -0.751936 1.616839 -0.761717
v -0.747271 1.784654 -0.761717
v -0.751936 1.784654 -0.761717
v -0.747271 1.770346 -0.761717
v -0.751936 1.770346 -0.761717
v -0.747271 1.616839 -0.563718
v -0.747271 1.938160 -0.563718
v -0.751936 1.938160 -0.563718
v -0.751936 1.616839 -0.563718
v -0.747271 1.784654 -0.563718
v -0.751936 1.784654 -0.563718
v -0.747271 1.770346 -0.563718
v -0.751936 1.770346 -0.563718
v -1.196571 0.404684 -0.483634
v -1.096499 0.404684 -0.409308
v -1.096499 0.825413 -0.409308
v -1.196571 0.825413 -0.483634
v -1.196571 0.825413 -0.841801
v -1.096499 0.825413 -0.916127
v -1.096499 0.404684 -0.916127
v -1.196571 0.404684 -0.841801
v -1.205848 0.404684 -0.823350
v -1.205848 0.404684 -0.502085
v -1.205848 0.825413 -0.502085
v -1.205848 0.825413 -0.823350
v -1.191143 0.846772 -0.489495
v -1.097584 0.844817 -0.422382
v -1.098869 0.907323 -0.489319
v -1.143732 0.905362 -0.547945
v -1.191143 0.846772 -0.835940
v -1.097584 0.844817 -0.903053
v -1.143732 0.905362 -0.777490
v -1.098869 0.907323 -0.836116
v -1.198138 0.848274 -0.517166
v -1.198138 0.848274 -0.808269
v -1.154199 0.905973 -0.571507
v -1.154199 0.905973 -0.753928
v 0.621427 0.806276 0.406145
v 0.621427 0.806276 0.399157
v 0.621427 0.419255 0.406145
v 0.621427 0.419255 0.399157
v 0.304365 0.806276 0.406145
v 0.304365 0.806276 0.399157
v 0.304365 0.419255 0.406145
v 0.304365 0.419255 0.399157
v -0.696955 0.431559 0.384587
v -0.324200 0.431559 0.384587
v -0.696955 0.804320 0.384587
v -0.324200 0.804320 0.384587
v -0.696955 0.804320 0.377599
v -0.324200 0.804320 0.377599
v -0.696955 0.431559 0.377599
v -0.324200 0.431559 0.377599
vn -0.0000 -0.0000 -1.0000
vn -0.0000 -0.0000 1.0000
vn 1.0000 -0.0000 -0.0000
vn -1.0000 -0.0000 -0.0000
vn -0.5963 -0.0000 0.8028
vn -0.5963 -0.0000 -0.8028
vn -0.4701 0.7149 0.5175
vn -0.4701 0.7149 -0.5175
vn -0.7956 0.6059 -0.0000
vt 0.488358 0.348077
vt 0.488425 0.657480
vt 0.776604 0.348015
vt 0.776671 0.657418
vt 0.812884 0.343634
vt 0.812962 0.653037
vt 1.101130 0.343562
vt 1.101208 0.652965
vt 0.242465 0.008778
vt 0.446785 0.008778
vt 0.309282 0.184253
vt 0.311217 0.094965
vt 0.379968 0.008778
vt 0.242465 0.184253
vt 0.309282 0.008778
vt 0.378033 0.094965
vt 0.242465 0.094965
vt 0.446785 0.094965
vt 0.309282 0.098066
vt 0.311217 0.008778
vt 0.379968 0.094965
vt 0.242465 0.098066
vt 0.309282 0.094965
vt 0.378033 0.008778
vt 0.600806 0.221180
vt 0.546541 0.221190
vt 0.546507 0.038047
vt 0.600772 0.038037
vt 0.456590 0.408300
vt 0.402325 0.408308
vt 0.402296 0.225165
vt 0.456561 0.225157
vt 0.402296 0.038051
vt 0.542141 0.038034
vt 0.542163 0.221177
vt 0.402319 0.221194
vt 0.460696 0.274920
vt 0.461381 0.225058
vt 0.496567 0.243350
vt 0.501994 0.274857
vt 0.608067 0.272537
vt 0.607344 0.222675
vt 0.566769 0.272505
vt 0.572172 0.240994
vt 0.610867 0.203315
vt 0.610878 0.330032
vt 0.642452 0.226967
vt 0.642459 0.306375
vt 0.707522 0.213517
vt 0.565498 0.043400
vt 0.707513 0.045055
vt 0.565469 0.211862
vt 0.569510 0.213525
vt 0.427487 0.043376
vt 0.569502 0.045062
vt 0.427458 0.211838
vt 0.245032 0.433132
vt 0.407293 0.433157
vt 0.245007 0.595392
vt 0.407268 0.595418
vt 0.061067 0.703329
vt 0.061043 0.541068
vt 0.223328 0.703305
vt 0.223304 0.541044
s 0
usemtl _Fenetre
f 2/2/1 1/1/1 3/3/1 4/4/1
f 8/8/2 6/6/2 5/5/2 7/7/2
f 17/17/3 9/9/3 15/15/3 23/23/3
f 24/24/4 16/16/4 12/12/4 20/20/4
f 21/21/3 13/13/3 10/10/3 18/18/3
f 19/19/4 11/11/4 14/14/4 22/22/4
f 28/28/5 25/25/5 26/26/5 27/27/5
f 32/32/6 29/29/6 30/30/6 31/31/6
f 36/36/4 33/33/4 34/34/4 35/35/4
f 39/39/7 40/40/7 37/37/7 38/38/7
f 44/44/8 42/42/8 41/41/8 43/43/8
f 48/48/9 46/46/9 45/45/9 47/47/9
f 55/55/2 51/51/2 49/49/2 53/53/2
f 54/54/1 50/50/1 52/52/1 56/56/1
f 57/57/2 58/58/2 60/60/2 59/59/2
f 61/61/1 62/62/1 64/64/1 63/63/1
